<?xml version="1.0" standalone="no"?>
<!DOCTYPE svg PUBLIC "-//W3C//DTD SVG 20010904//EN"
 "http://www.w3.org/TR/2001/REC-SVG-20010904/DTD/svg10.dtd">
<svg version="1.0" xmlns="http://www.w3.org/2000/svg"
 width="700.000000pt" height="700.000000pt" viewBox="0 0 700.000000 700.000000"
 preserveAspectRatio="xMidYMid meet">
<metadata>
Created by potrace 1.14, written by Peter Selinger 2001-2017
</metadata>
<g transform="translate(0.000000,700.000000) scale(0.100000,-0.100000)"
fill="#000000" stroke="none">
<path d="M310 3416 l0 -3274 3273 1 3272 2 2 3273 2 3272 -3275 0 -3274 0 0
-3274z m106 3004 c-3 -118 -8 -381 -11 -585 -4 -203 -8 -460 -10 -570 -9 -521
-18 -1038 -18 -1112 -1 -46 -4 -83 -7 -83 -5 0 -6 2562 -1 2566 0 1 12 1 26 0
l25 -1 -4 -215z m110 11 c-4 -114 -9 -253 -11 -311 -3 -58 -7 -179 -10 -270
-3 -91 -8 -217 -10 -280 -5 -143 -14 -391 -20 -575 -3 -77 -7 -203 -10 -280
-3 -77 -7 -196 -10 -265 -9 -277 -18 -528 -21 -580 -1 -30 -3 -100 -3 -154 -1
-55 -4 -97 -7 -93 -6 5 -5 148 1 457 2 85 6 342 10 570 7 415 8 497 20 1160
12 712 15 812 19 819 3 4 17 7 31 7 l27 0 -6 -205z m118 179 c-1 -13 -5 -83
-8 -154 -4 -72 -9 -160 -11 -196 -2 -36 -6 -123 -10 -195 -3 -71 -8 -155 -10
-185 -2 -30 -7 -111 -10 -180 -3 -69 -8 -154 -10 -190 -3 -36 -7 -112 -10
-170 -3 -58 -8 -148 -10 -200 -3 -52 -7 -138 -10 -190 -2 -52 -7 -135 -10
-185 -9 -146 -14 -243 -20 -360 -10 -193 -23 -444 -30 -550 -2 -38 -7 -128
-10 -200 -7 -158 -15 -258 -22 -265 -3 -3 -2 29 1 70 3 41 8 154 11 250 3 96
8 229 10 295 2 66 7 192 10 280 3 88 8 216 10 285 3 69 7 195 10 280 3 85 7
218 10 295 3 77 7 203 10 280 3 77 7 201 10 275 3 74 7 198 10 275 17 533 22
642 28 652 3 5 18 8 34 7 23 -1 28 -5 27 -24z m3163 24 c-3 -3 -12 -4 -19 -1
-8 3 -5 6 6 6 11 1 17 -2 13 -5z m40 0 c-3 -3 -12 -4 -19 -1 -8 3 -5 6 6 6 11
1 17 -2 13 -5z m60 0 c-3 -3 -12 -4 -19 -1 -8 3 -5 6 6 6 11 1 17 -2 13 -5z
m70 0 c-3 -3 -12 -4 -19 -1 -8 3 -5 6 6 6 11 1 17 -2 13 -5z m133 -4 c0 -4
-24 -5 -52 -3 -77 7 -83 12 -10 11 34 -1 62 -4 62 -8z m40 -2 c0 -4 -7 -8 -15
-8 -8 0 -15 4 -15 8 0 5 7 9 15 9 8 0 15 -4 15 -9z m50 2 c0 -4 -7 -7 -15 -6
-23 3 -26 12 -5 13 11 1 20 -2 20 -7z m2600 -23 l0 -28 -352 6 c-194 3 -459 8
-588 10 -129 3 -395 7 -590 10 -195 3 -443 8 -550 10 -107 2 -266 5 -352 5
-87 1 -158 5 -158 9 0 4 583 7 1295 7 l1295 0 0 -29z m-6045 -49 c-12 -131
-16 -188 -31 -418 -2 -41 -6 -97 -9 -125 -2 -27 -7 -86 -10 -130 -3 -44 -8
-105 -10 -135 -3 -30 -7 -95 -11 -145 -3 -49 -7 -110 -9 -135 -2 -25 -6 -85
-10 -135 -3 -49 -8 -110 -10 -135 -2 -25 -7 -83 -10 -130 -5 -83 -10 -155 -20
-275 -9 -107 -14 -178 -20 -278 -3 -54 -8 -117 -10 -140 -2 -23 -6 -76 -9
-117 -3 -41 -8 -106 -11 -145 -3 -38 -7 -101 -10 -140 -7 -100 -15 -212 -20
-270 -2 -27 -7 -88 -10 -135 -4 -47 -8 -105 -10 -130 -2 -25 -5 -76 -6 -113
-1 -37 -6 -70 -10 -73 -5 -3 -7 10 -5 28 3 18 8 96 11 173 4 77 8 167 10 200
2 33 6 114 10 180 4 66 8 154 10 195 3 41 7 120 10 175 3 55 7 136 10 180 3
44 7 132 10 195 3 63 7 149 10 190 6 91 13 218 20 365 5 118 13 254 20 375 3
41 7 127 10 190 3 63 8 142 10 175 2 33 6 116 10 185 3 69 8 154 10 190 7 116
18 314 18 348 0 31 2 32 40 32 l39 0 -7 -72z m111 25 c-3 -27 -8 -79 -11 -118
-3 -38 -8 -88 -10 -110 -2 -22 -7 -71 -11 -110 -3 -38 -8 -83 -9 -100 -2 -16
-6 -66 -10 -110 -3 -44 -8 -91 -10 -105 -2 -14 -7 -63 -10 -109 -4 -47 -8 -92
-10 -100 -1 -9 -6 -59 -10 -111 -4 -52 -9 -102 -10 -110 -2 -8 -6 -53 -9 -100
-4 -47 -9 -96 -11 -110 -2 -14 -7 -61 -10 -105 -3 -44 -8 -98 -10 -120 -5 -49
-13 -131 -20 -210 -5 -62 -14 -155 -20 -215 -2 -19 -6 -64 -10 -100 -3 -36 -8
-85 -10 -110 -2 -25 -7 -74 -10 -110 -3 -36 -8 -81 -10 -100 -2 -19 -7 -73
-11 -120 -3 -47 -8 -93 -9 -102 -2 -9 -6 -57 -10 -105 -3 -48 -8 -104 -11
-123 -2 -20 -6 -60 -9 -90 -9 -107 -17 -190 -20 -207 -2 -10 -4 -37 -4 -61 -1
-27 -5 -41 -11 -37 -6 4 -8 9 -6 13 3 6 14 122 21 232 9 148 17 250 20 280 2
19 7 80 10 135 3 55 8 116 10 135 2 19 7 76 10 125 3 50 8 115 10 145 2 30 7
96 10 145 3 50 7 110 10 135 2 25 7 83 10 130 12 182 16 227 20 280 3 30 7 89
10 130 2 41 7 111 10 155 3 44 8 100 10 125 3 25 7 83 10 130 7 111 14 214 20
270 2 25 7 86 10 135 5 88 11 174 20 285 2 30 7 96 10 145 9 123 10 125 52
125 l35 0 -6 -47z m117 32 c-1 -5 -4 -35 -7 -65 -4 -30 -8 -71 -10 -90 -3 -19
-7 -62 -11 -95 -4 -33 -8 -76 -11 -95 -2 -19 -6 -57 -9 -85 -4 -27 -8 -68 -11
-90 -8 -64 -19 -167 -29 -250 -2 -22 -9 -78 -14 -125 -6 -47 -13 -110 -16
-140 -3 -30 -7 -71 -10 -90 -3 -19 -7 -60 -10 -90 -3 -30 -7 -66 -10 -80 -2
-14 -7 -55 -10 -92 -3 -37 -8 -77 -10 -90 -2 -13 -6 -50 -10 -83 -6 -64 -23
-211 -30 -260 -2 -16 -7 -55 -10 -85 -3 -30 -7 -71 -10 -90 -2 -19 -11 -100
-20 -180 -8 -80 -17 -158 -19 -175 -2 -16 -7 -59 -11 -95 -3 -36 -8 -76 -10
-90 -2 -14 -6 -47 -9 -75 -6 -51 -14 -121 -22 -187 -2 -21 -6 -55 -8 -75 -3
-21 -8 -63 -11 -93 -3 -30 -8 -71 -10 -90 -2 -19 -10 -82 -16 -140 -6 -58 -13
-114 -14 -125 -1 -11 -6 -51 -10 -90 -4 -38 -8 -72 -10 -75 -2 -4 -5 -32 -6
-63 -1 -31 -6 -57 -11 -57 -5 0 -7 8 -4 18 2 9 7 53 11 97 3 44 8 94 9 110 2
17 7 64 10 105 4 41 9 91 11 110 2 19 7 67 10 105 3 39 8 86 10 105 2 19 7 71
10 115 4 44 9 91 10 105 2 14 6 63 10 110 4 47 8 98 10 115 2 16 7 61 10 100
6 77 13 146 20 215 6 51 11 110 20 220 3 41 8 86 10 100 2 14 7 63 10 110 4
47 9 96 10 110 2 14 6 59 9 100 4 41 9 95 11 120 3 25 7 68 10 95 2 28 7 73 9
100 3 28 8 82 11 120 3 39 7 84 9 100 3 17 7 66 11 110 3 44 8 96 10 115 3 19
7 67 10 105 3 39 8 90 10 115 5 49 12 115 20 200 3 30 7 75 10 100 2 25 7 83
11 130 4 47 8 94 10 105 1 11 3 28 3 38 1 15 8 18 44 15 23 -2 41 -7 40 -13z
m107 -15 c0 -11 -6 -64 -14 -118 -16 -109 -20 -139 -41 -302 -9 -63 -24 -178
-35 -255 -11 -77 -22 -158 -25 -180 -8 -64 -15 -117 -20 -156 -3 -20 -8 -54
-11 -75 -2 -22 -9 -66 -14 -99 -5 -33 -12 -85 -15 -115 -3 -30 -8 -62 -10 -70
-2 -8 -7 -44 -10 -80 -4 -36 -9 -74 -11 -85 -4 -21 -12 -77 -20 -140 -2 -22
-7 -51 -9 -65 -2 -14 -7 -50 -10 -80 -6 -56 -8 -69 -20 -150 -8 -58 -12 -83
-20 -150 -4 -30 -9 -62 -10 -70 -1 -8 -6 -40 -10 -70 -3 -30 -8 -66 -10 -80
-2 -14 -6 -43 -9 -65 -15 -109 -68 -498 -76 -555 -5 -36 -12 -87 -15 -115 -3
-27 -15 -111 -25 -185 -10 -74 -22 -161 -26 -193 -3 -31 -10 -59 -14 -62 -4
-2 -4 14 0 38 5 23 11 78 15 122 3 44 8 87 10 95 2 8 6 42 10 75 3 33 7 74 10
90 2 17 7 54 10 83 12 121 17 161 25 227 6 39 12 99 15 135 3 36 7 72 10 80 2
8 6 47 10 85 3 39 8 81 10 95 2 14 7 52 10 85 3 33 10 94 15 135 5 41 12 104
15 140 3 36 7 76 10 90 2 14 7 50 10 80 3 30 10 89 15 130 5 41 12 102 16 135
3 33 7 71 9 85 2 14 7 52 10 85 4 33 8 71 10 85 2 14 7 57 11 95 13 135 23
221 29 255 2 14 7 54 10 90 4 36 8 76 10 90 2 14 6 54 10 90 4 36 8 76 10 90
2 14 6 50 10 80 3 30 8 71 10 90 5 36 7 59 25 220 11 98 21 190 26 225 1 11 3
23 3 28 1 4 19 7 41 7 33 0 40 -3 40 -20z m88 13 c23 -6 24 -9 17 -62 -7 -54
-9 -70 -20 -121 -3 -14 -7 -45 -10 -70 -3 -24 -16 -110 -30 -190 -13 -80 -27
-165 -30 -190 -4 -25 -13 -83 -20 -130 -8 -47 -16 -98 -19 -115 -13 -86 -18
-122 -22 -145 -2 -14 -7 -43 -10 -65 -10 -70 -12 -79 -18 -115 -3 -19 -15 -93
-26 -165 -12 -71 -23 -143 -26 -160 -3 -16 -7 -43 -10 -60 -2 -16 -6 -41 -9
-55 -7 -38 -14 -80 -19 -125 -3 -22 -8 -49 -10 -60 -2 -11 -7 -40 -10 -65 -3
-25 -8 -56 -10 -70 -3 -14 -7 -43 -11 -65 -3 -22 -7 -47 -10 -55 -2 -8 -7 -42
-10 -75 -4 -32 -8 -62 -10 -66 -3 -3 -7 -24 -9 -45 -3 -22 -12 -82 -20 -134
-9 -52 -18 -113 -21 -135 -4 -22 -15 -92 -25 -155 -11 -63 -26 -162 -35 -220
-9 -58 -17 -116 -20 -130 -12 -83 -18 -117 -20 -130 -2 -8 -10 -64 -19 -125
-10 -60 -19 -121 -22 -135 -23 -137 -34 -204 -40 -253 -3 -32 -9 -56 -11 -53
-4 4 7 112 22 206 6 41 36 253 40 290 2 19 12 85 20 145 9 61 18 126 20 145 4
40 15 123 20 160 7 45 16 109 19 137 8 61 27 199 31 223 2 14 7 50 10 80 3 30
12 96 20 145 7 50 16 115 20 145 3 30 8 66 11 80 2 14 6 43 9 65 5 45 8 72 30
235 9 63 18 126 20 140 3 14 7 50 11 80 3 30 8 62 9 70 2 9 6 43 10 75 4 33 9
69 11 79 3 17 30 218 49 371 3 22 8 51 10 65 2 14 7 48 10 75 3 28 12 93 20
145 8 52 17 120 20 150 3 30 10 80 15 110 4 30 12 82 16 115 4 33 8 62 9 65 1
3 5 38 9 78 9 78 13 82 74 65z m138 -19 c-3 -8 -10 -45 -16 -82 -6 -37 -17
-98 -25 -137 -8 -38 -17 -86 -20 -105 -3 -19 -19 -109 -36 -200 -17 -91 -37
-203 -45 -250 -31 -179 -85 -479 -104 -575 -10 -55 -21 -116 -24 -135 -3 -19
-12 -71 -20 -115 -9 -44 -18 -96 -21 -115 -3 -19 -18 -101 -34 -182 -15 -82
-24 -148 -20 -148 3 0 14 44 24 98 9 53 23 129 30 167 8 39 26 138 40 220 15
83 37 209 50 280 41 223 84 458 90 495 3 19 13 73 21 120 9 47 18 96 21 110
46 258 94 520 98 538 5 19 12 22 54 22 l49 0 -14 -57 c-7 -32 -13 -65 -12 -73
0 -8 8 16 17 53 9 37 20 68 24 67 4 0 25 0 48 0 l41 0 -6 -42 -6 -43 13 40 c7
22 17 40 22 40 15 0 166 -16 200 -20 17 -2 99 -14 184 -25 168 -23 325 -51
556 -101 83 -18 160 -33 173 -33 12 -1 22 -4 22 -8 0 -4 8 -7 18 -7 54 -2 72
-6 72 -14 0 -5 6 -4 14 2 11 9 15 8 20 -4 3 -9 11 -13 16 -10 6 4 18 1 27 -7
12 -9 15 -9 9 0 -4 6 -2 12 3 12 6 0 11 -5 11 -12 0 -6 3 -8 7 -5 3 4 11 2 18
-3 7 -6 23 -6 43 -1 25 8 30 7 25 -5 -4 -12 0 -12 22 -4 14 5 34 10 43 10 14
0 15 -2 2 -9 -8 -6 -18 -7 -22 -5 -4 3 -8 0 -8 -7 0 -7 8 -9 23 -4 12 4 33 8
47 10 14 1 16 0 5 -2 -38 -9 -42 -26 -5 -18 28 5 32 4 20 -5 -13 -10 -12 -11
3 -6 10 3 28 6 40 7 21 0 21 1 2 9 -24 11 21 6 135 -16 41 -7 116 -21 165 -29
146 -26 291 -52 437 -80 76 -14 155 -28 175 -31 21 -3 70 -12 108 -19 39 -8
135 -26 215 -40 184 -32 171 -30 390 -70 102 -19 226 -41 275 -50 50 -8 101
-17 115 -20 70 -14 300 -55 335 -60 22 -4 47 -8 55 -10 8 -2 31 -7 50 -10 19
-3 42 -8 50 -10 8 -2 35 -7 60 -10 25 -4 77 -13 115 -20 39 -8 108 -21 155
-29 74 -13 213 -38 425 -77 33 -6 128 -23 210 -38 l150 -27 3 -47 c2 -26 -1
-47 -6 -47 -6 0 -45 7 -88 15 -134 27 -130 26 -114 16 8 -5 49 -14 90 -21 115
-19 116 -20 112 -75 l-4 -46 -42 5 -41 5 40 -11 41 -10 -8 -81 c-31 -313 -71
-560 -154 -947 -68 -314 -70 -325 -80 -362 -3 -13 -7 -32 -8 -43 -1 -11 -5
-26 -10 -33 -4 -7 -5 -16 -2 -19 3 -3 1 -12 -6 -20 -6 -7 -8 -16 -5 -20 4 -3
1 -13 -6 -21 -9 -13 -9 -14 1 -8 6 4 12 2 12 -3 0 -6 -4 -11 -9 -11 -5 0 -12
-7 -15 -16 -3 -8 -2 -12 4 -9 6 3 10 -1 10 -10 0 -9 -5 -13 -10 -10 -7 4 -9
-3 -5 -22 5 -23 4 -25 -5 -13 -10 13 -11 13 -6 -2 3 -10 1 -20 -4 -23 -6 -4
-10 -12 -10 -18 0 -7 4 -6 10 3 8 12 10 10 10 -8 0 -15 -4 -21 -12 -16 -7 4
-8 3 -4 -5 4 -6 4 -31 0 -54 -7 -39 -8 -40 -15 -17 -7 20 -8 17 -4 -11 3 -21
-16 -140 -50 -305 -49 -237 -107 -520 -121 -594 -3 -14 -27 -131 -54 -260 -27
-129 -51 -246 -54 -260 -5 -30 -66 -328 -71 -350 -2 -8 -13 -60 -24 -115 -21
-106 -109 -536 -117 -570 -2 -11 -11 -54 -19 -95 -8 -41 -28 -140 -45 -220
-44 -207 -130 -633 -130 -642 0 -4 -22 -8 -50 -8 -27 0 -50 1 -50 3 0 12 63
273 67 281 4 5 1 6 -5 2 -6 -3 -15 -30 -22 -59 -6 -28 -20 -90 -31 -137 l-20
-86 -157 17 c-291 31 -516 69 -842 139 -74 16 -146 32 -160 34 -14 3 -45 10
-70 16 -50 13 -96 21 -122 23 -10 1 -18 4 -18 8 0 4 -8 6 -17 4 -10 -1 -23 2
-30 7 -8 6 -25 6 -48 -2 -19 -6 -41 -9 -48 -7 -6 3 -3 6 8 6 11 1 27 6 35 12
12 9 11 10 -7 6 -13 -3 -23 -1 -23 5 0 6 -14 8 -37 4 -28 -5 -34 -4 -23 4 11
8 7 9 -18 5 -25 -4 -32 -2 -26 6 5 9 2 10 -10 6 -10 -4 -27 -7 -39 -8 -12 0 1
-7 28 -14 57 -14 31 -19 -30 -6 -22 5 -58 12 -80 16 -59 9 -76 12 -365 65
-146 27 -332 60 -415 75 -82 14 -170 30 -195 35 -51 11 -222 42 -350 64 -47 8
-184 33 -305 55 -354 65 -1377 250 -1415 256 -19 3 -127 23 -240 44 l-205 37
-3 47 c-2 34 1 47 10 47 7 0 112 -20 233 -45 121 -25 288 -59 370 -76 83 -17
157 -32 165 -34 56 -12 459 -95 680 -140 146 -29 354 -72 463 -94 432 -89 596
-123 927 -191 190 -39 423 -87 518 -106 138 -29 178 -33 200 -25 24 10 23 11
-13 6 -29 -4 -36 -3 -25 4 11 8 4 9 -24 4 -25 -4 -37 -3 -33 4 4 6 -4 9 -21 6
-23 -3 -24 -2 -7 6 14 7 16 10 4 10 -8 1 -19 -3 -25 -7 -5 -5 -109 12 -234 39
-124 27 -238 50 -255 53 -16 3 -172 35 -345 71 -173 36 -331 68 -350 71 -19 3
-43 7 -52 10 -9 3 -27 7 -39 9 -13 3 -68 14 -123 26 -56 11 -263 54 -461 94
-198 41 -504 104 -680 140 -325 67 -711 146 -820 168 l-60 12 4 45 c1 25 4 46
6 48 1 1 77 -15 169 -36 92 -21 163 -35 159 -31 -6 5 -311 79 -328 79 -2 0 -2
15 1 32 2 18 11 94 20 168 26 231 63 456 116 705 27 132 52 249 55 260 3 11 6
32 7 48 0 15 4 27 7 27 12 0 19 63 8 76 -6 7 -9 19 -6 26 4 8 6 7 6 -4 1 -25
16 -23 18 2 1 11 -2 20 -6 20 -4 0 -8 7 -8 15 0 18 13 20 21 3 6 -12 4 -3 -9
55 -5 20 -5 20 5 -2 16 -36 23 -18 11 26 -15 52 -12 66 4 23 16 -41 19 -29 5
20 -10 34 -5 68 44 335 8 44 44 244 80 445 36 201 75 415 86 475 58 310 76
415 68 415 -4 0 -8 -6 -9 -12 0 -7 -2 -20 -4 -28 -2 -8 -10 -58 -19 -110 -10
-52 -28 -153 -41 -225 -13 -71 -26 -141 -29 -155 -2 -14 -18 -101 -35 -195
-17 -93 -33 -183 -36 -200 -5 -28 -8 -47 -20 -105 -2 -14 -7 -38 -9 -55 -13
-79 -18 -107 -36 -200 -44 -224 -71 -398 -65 -414 5 -12 3 -13 -5 -5 -12 12
-3 86 40 344 10 63 31 192 45 285 23 149 58 371 70 445 2 14 29 185 60 380 31
195 58 366 60 380 2 14 11 72 20 130 20 130 23 149 30 180 3 14 7 41 9 60 2
19 18 118 34 220 17 102 33 203 37 225 62 404 120 772 150 955 14 85 25 158
25 163 0 4 23 7 51 7 42 0 50 -3 45 -16z m2429 -14 c3 -5 1 -10 -4 -10 -6 0
-11 5 -11 10 0 6 2 10 4 10 3 0 8 -4 11 -10z m975 -15 c157 -3 398 -7 535 -10
138 -2 414 -7 615 -11 201 -3 439 -8 530 -9 91 -2 218 -4 283 -4 l117 -1 0
-36 c0 -19 -3 -33 -7 -31 -5 3 -105 8 -223 12 -118 3 -255 8 -305 10 -49 2
-169 6 -265 9 -169 6 -325 12 -575 21 -66 3 -194 7 -285 10 -91 3 -214 7 -275
10 -60 2 -191 7 -290 10 -99 3 -223 8 -275 10 -52 2 -189 7 -305 11 -115 3
-212 8 -215 11 -3 2 144 2 325 -1 182 -4 458 -9 615 -11z m-1227 -32 c-7 -2
-21 -2 -30 0 -10 3 -4 5 12 5 17 0 24 -2 18 -5z m81 -2 c4 -5 -3 -7 -14 -4
-23 6 -26 13 -6 13 8 0 17 -4 20 -9z m216 -12 c0 -6 -4 -8 -8 -5 -5 3 -43 6
-85 7 -42 1 -75 5 -73 8 7 10 166 0 166 -10z m360 -4 c113 -4 239 -8 280 -10
41 -2 167 -6 280 -10 113 -3 252 -8 310 -10 99 -4 229 -9 535 -20 358 -12 460
-16 570 -20 66 -2 194 -7 285 -10 149 -6 363 -14 383 -15 4 0 7 -15 7 -34 0
-32 -2 -33 -32 -31 -18 2 -94 6 -168 10 -74 3 -162 8 -195 10 -33 2 -116 7
-185 10 -69 4 -150 8 -180 10 -30 2 -111 6 -180 9 -69 4 -154 8 -190 11 -36 2
-121 7 -190 10 -69 4 -154 8 -190 10 -36 2 -112 7 -170 10 -58 3 -139 7 -180
10 -41 2 -133 7 -205 11 -71 3 -152 8 -180 9 -27 2 -113 6 -190 10 -77 4 -160
9 -185 10 -25 2 -117 7 -205 10 -88 4 -164 11 -169 15 -5 5 25 7 65 5 41 -2
166 -6 279 -10z m-752 -22 c-10 -2 -26 -2 -35 0 -10 3 -2 5 17 5 19 0 27 -2
18 -5z m417 -18 c28 -2 106 -6 175 -10 69 -3 157 -8 195 -10 101 -6 244 -14
370 -20 61 -3 142 -8 180 -10 39 -2 124 -6 190 -10 66 -3 154 -8 195 -10 41
-3 118 -7 170 -10 52 -3 131 -7 175 -10 44 -3 132 -7 195 -10 63 -3 149 -7
190 -10 41 -2 127 -7 190 -10 63 -3 149 -8 190 -10 107 -7 215 -13 370 -21
118 -6 163 -9 193 -13 4 -1 7 -17 7 -37 l0 -35 -57 5 c-32 3 -92 8 -133 11
-41 3 -104 7 -140 10 -36 2 -103 7 -150 11 -47 3 -101 7 -120 9 -19 2 -80 6
-135 10 -55 4 -116 8 -135 10 -19 2 -82 6 -140 10 -58 3 -121 8 -140 10 -30 3
-89 8 -280 20 -73 5 -227 16 -270 20 -25 2 -85 6 -135 10 -49 3 -106 8 -125
10 -19 2 -84 7 -145 11 -131 7 -165 10 -270 18 -44 4 -114 9 -155 11 -41 3
-97 7 -125 10 -27 2 -86 7 -130 10 -44 3 -109 8 -145 11 -75 6 -133 10 -280
19 -58 4 -107 9 -110 12 -5 5 209 -3 335 -12z m-437 -22 c-10 -2 -28 -2 -40 0
-13 2 -5 4 17 4 22 1 32 -1 23 -4z m47 -3 c3 -5 1 -10 -4 -10 -6 0 -11 5 -11
10 0 6 2 10 4 10 3 0 8 -4 11 -10z m-338 -6 c-3 -3 -12 -4 -19 -1 -8 3 -5 6 6
6 11 1 17 -2 13 -5z m568 -9 c22 -2 85 -7 140 -10 55 -3 123 -8 150 -10 28 -2
86 -7 130 -10 44 -3 100 -7 125 -10 25 -2 86 -7 135 -10 50 -3 115 -8 145 -10
30 -2 93 -7 140 -10 47 -4 105 -8 130 -10 25 -2 88 -6 140 -9 52 -4 115 -8
140 -11 25 -3 83 -7 130 -10 47 -3 110 -8 140 -10 30 -2 91 -7 135 -10 44 -3
107 -8 140 -10 63 -5 156 -12 290 -20 44 -3 98 -7 120 -10 22 -2 83 -6 135
-10 52 -3 115 -8 140 -10 25 -2 86 -7 135 -10 50 -4 108 -8 130 -10 22 -2 90
-7 150 -10 61 -4 113 -9 118 -12 4 -2 7 -20 7 -39 0 -35 0 -35 -37 -30 -21 3
-72 8 -113 11 -41 3 -95 8 -120 10 -76 8 -142 14 -205 20 -75 6 -265 24 -325
30 -25 2 -74 7 -110 10 -36 3 -83 7 -105 10 -22 2 -71 7 -110 10 -38 4 -88 8
-110 10 -22 2 -69 7 -105 10 -36 3 -85 8 -110 10 -99 10 -148 15 -210 20 -36
3 -85 7 -110 10 -25 3 -74 7 -110 10 -36 3 -81 8 -100 10 -19 2 -71 7 -115 10
-44 3 -91 8 -105 10 -14 2 -61 6 -105 10 -44 3 -98 8 -120 10 -22 3 -65 7 -95
10 -30 3 -75 7 -100 10 -25 2 -79 7 -120 10 -41 4 -86 8 -100 10 -26 3 -100
10 -225 20 -38 3 -83 8 -100 10 -16 2 -66 7 -110 10 -44 4 -82 10 -85 12 -4 5
109 -2 215 -12z m-487 -2 c-10 -2 -26 -2 -35 0 -10 3 -2 5 17 5 19 0 27 -2 18
-5z m137 -8 c44 -3 94 -8 110 -10 17 -2 62 -7 100 -10 98 -8 173 -15 220 -20
22 -3 72 -7 110 -10 39 -3 86 -8 105 -10 19 -2 69 -7 110 -10 41 -3 91 -8 110
-10 19 -2 64 -7 100 -10 36 -3 81 -8 100 -10 19 -2 69 -7 110 -10 41 -4 91 -8
110 -10 19 -2 71 -7 115 -11 44 -3 94 -8 110 -10 17 -1 66 -5 110 -9 44 -3 91
-8 105 -10 14 -2 63 -7 110 -11 47 -3 92 -7 100 -9 8 -2 53 -6 100 -9 47 -4
96 -9 110 -11 14 -2 63 -7 110 -10 47 -3 101 -8 120 -10 19 -2 64 -7 100 -10
36 -4 81 -8 100 -10 19 -2 71 -7 115 -10 44 -4 91 -8 105 -10 14 -2 61 -6 105
-10 44 -3 94 -8 110 -10 17 -2 68 -6 115 -10 47 -4 92 -9 101 -10 8 -2 55 -6
105 -10 150 -11 164 -15 159 -43 -2 -9 -4 -25 -4 -35 -1 -17 -8 -18 -73 -12
-40 3 -80 8 -88 10 -8 2 -44 7 -80 10 -68 6 -120 12 -180 20 -19 3 -60 7 -90
10 -30 3 -71 7 -90 10 -19 2 -60 7 -90 10 -30 4 -66 8 -80 10 -14 2 -54 6 -90
10 -36 4 -76 8 -90 10 -14 2 -52 6 -85 10 -102 11 -141 16 -295 34 -47 6 -112
13 -145 16 -33 3 -76 7 -95 10 -19 2 -55 7 -80 10 -25 3 -61 7 -80 10 -19 2
-62 7 -95 10 -33 3 -94 10 -135 15 -41 5 -100 12 -130 15 -30 3 -89 10 -130
15 -41 5 -100 12 -130 15 -30 3 -89 10 -130 15 -41 5 -97 12 -125 15 -106 11
-161 17 -185 20 -14 2 -56 7 -95 11 -38 3 -78 8 -88 10 -10 2 -48 6 -85 9 -37
3 -74 8 -82 10 -8 2 -48 7 -88 10 -41 4 -81 8 -90 10 -9 1 -44 6 -77 9 -33 4
-69 9 -80 11 -11 2 -39 4 -62 4 -24 1 -43 6 -43 12 0 5 3 8 8 6 4 -3 43 -8 87
-12z m-362 -22 c-7 -2 -19 -2 -25 0 -7 3 -2 5 12 5 14 0 19 -2 13 -5z m199
-23 c73 -10 156 -22 183 -25 28 -3 64 -8 80 -10 55 -8 99 -14 285 -39 102 -14
201 -27 220 -30 34 -5 235 -32 315 -42 22 -2 51 -7 65 -9 14 -2 45 -7 70 -10
40 -5 65 -8 150 -20 56 -8 187 -26 215 -30 17 -2 84 -11 150 -20 66 -9 137
-18 157 -21 21 -3 52 -7 70 -9 18 -2 49 -6 68 -9 19 -3 55 -8 80 -11 25 -4 56
-8 70 -10 14 -2 97 -13 185 -25 177 -23 176 -23 325 -44 58 -8 128 -17 155
-21 28 -3 100 -13 160 -21 61 -9 121 -17 135 -19 27 -3 247 -33 295 -40 17 -2
68 -9 115 -15 47 -6 88 -14 91 -18 4 -4 4 -24 2 -44 -6 -46 2 -45 -191 -13
-81 13 -165 27 -187 30 -23 3 -50 7 -60 9 -11 2 -40 7 -65 10 -25 3 -54 8 -65
10 -25 5 -265 43 -320 51 -22 4 -78 13 -125 20 -74 13 -137 22 -325 50 -22 3
-47 8 -55 10 -8 2 -35 7 -60 10 -25 3 -112 17 -195 30 -82 14 -168 27 -190 30
-22 4 -51 8 -65 11 -14 2 -47 7 -75 10 -27 3 -56 7 -63 9 -10 4 -145 26 -297
49 -16 2 -48 7 -70 11 -239 38 -388 61 -455 71 -19 3 -57 9 -85 14 -27 5 -68
12 -90 15 -85 12 -114 17 -230 36 -66 11 -133 21 -150 23 -52 7 -359 56 -375
60 -44 11 32 4 152 -14z m153 11 c33 -5 91 -12 128 -16 37 -3 76 -8 85 -10 9
-1 48 -6 85 -10 37 -3 76 -8 85 -10 9 -1 51 -6 92 -10 41 -5 82 -9 90 -10 8
-1 47 -5 85 -9 39 -4 81 -9 95 -11 14 -2 52 -7 85 -10 33 -3 92 -10 130 -15
39 -5 97 -12 130 -15 33 -4 78 -9 100 -11 22 -3 58 -7 80 -9 22 -3 63 -7 90
-10 28 -4 66 -8 85 -10 19 -2 53 -6 75 -9 69 -8 138 -16 190 -21 53 -6 107
-12 165 -20 19 -3 55 -7 80 -9 108 -11 167 -18 190 -21 14 -2 57 -7 95 -11 39
-3 78 -8 87 -10 9 -1 48 -6 85 -9 37 -4 75 -8 83 -10 8 -2 49 -7 90 -10 41 -4
82 -8 90 -10 8 -1 44 -6 80 -9 74 -8 129 -14 180 -21 19 -2 62 -7 95 -10 33
-4 71 -8 85 -10 14 -1 54 -6 90 -10 36 -4 72 -8 80 -10 8 -1 49 -6 90 -11 41
-4 78 -9 83 -10 4 -1 14 -2 22 -3 11 -1 15 -13 15 -41 0 -45 0 -45 -95 -31
-33 6 -85 13 -115 16 -30 3 -66 8 -80 11 -14 2 -43 7 -65 9 -22 3 -56 7 -75
10 -19 3 -102 14 -185 25 -82 11 -166 23 -185 26 -19 3 -57 7 -85 10 -27 2
-72 9 -100 14 -27 5 -72 12 -100 15 -61 7 -133 16 -160 21 -11 2 -45 6 -75 9
-30 4 -62 8 -70 10 -8 2 -40 7 -70 10 -30 3 -66 8 -80 10 -52 8 -176 25 -215
29 -22 3 -87 12 -145 20 -58 8 -132 18 -165 21 -33 4 -67 8 -75 11 -9 2 -49 8
-90 14 -41 5 -159 21 -262 35 -104 14 -272 36 -375 50 -219 29 -259 35 -293
40 -14 2 -41 6 -60 8 -19 3 -73 10 -120 17 -176 23 -264 38 -240 39 14 0 52
-3 85 -8z m-160 -36 c50 -8 100 -17 112 -19 11 -3 43 -7 70 -11 48 -6 92 -13
508 -79 121 -20 236 -38 255 -41 103 -15 497 -77 570 -90 47 -8 105 -17 130
-20 25 -4 81 -12 125 -20 44 -7 100 -16 125 -20 25 -3 70 -10 100 -15 30 -5
100 -17 155 -25 55 -9 114 -18 130 -21 17 -3 73 -11 125 -19 99 -15 524 -82
690 -109 52 -9 185 -30 295 -47 110 -17 206 -33 215 -34 8 -2 21 -4 28 -4 9
-1 12 -14 10 -43 -3 -38 -6 -43 -28 -44 -14 0 -41 3 -60 7 -19 4 -51 10 -70
13 -19 3 -96 17 -170 30 -74 14 -148 27 -165 30 -16 3 -41 8 -55 11 -14 2 -36
6 -50 9 -14 2 -63 11 -110 20 -47 8 -96 17 -110 20 -14 2 -77 13 -140 25 -63
11 -131 23 -150 26 -19 3 -42 8 -50 10 -8 2 -80 15 -160 29 -80 14 -217 38
-305 55 -88 16 -189 34 -225 40 -36 6 -76 13 -90 16 -87 16 -258 48 -330 61
-47 8 -96 17 -110 20 -14 2 -74 13 -135 24 -60 11 -123 22 -140 25 -16 3 -55
10 -85 15 -30 6 -66 12 -80 15 -14 3 -61 12 -105 20 -44 8 -93 17 -110 20 -16
3 -55 10 -85 15 -62 11 -94 16 -130 24 -14 3 -45 9 -70 12 -25 3 -47 8 -50 9
-3 2 -26 6 -50 10 -25 3 -67 10 -95 15 -27 5 -63 12 -80 15 -122 21 -155 28
-155 31 0 6 7 5 105 -11z m3412 -2247 c-3 -8 -6 -5 -6 6 -1 11 2 17 5 13 3 -3
4 -12 1 -19z m-10 -70 c-3 -7 -5 -2 -5 12 0 14 2 19 5 13 2 -7 2 -19 0 -25z
m-6165 -40 c-5 -74 -13 -74 -10 0 1 33 5 59 8 57 3 -2 5 -28 2 -57z m6155 -10
c-3 -7 -5 -2 -5 12 0 14 2 19 5 13 2 -7 2 -19 0 -25z m20 10 c-3 -8 -6 -5 -6
6 -1 11 2 17 5 13 3 -3 4 -12 1 -19z m20 -10 c-3 -7 -5 -2 -5 12 0 14 2 19 5
13 2 -7 2 -19 0 -25z m-50 -50 c-3 -7 -5 -2 -5 12 0 14 2 19 5 13 2 -7 2 -19
0 -25z m20 0 c-3 -7 -5 -2 -5 12 0 14 2 19 5 13 2 -7 2 -19 0 -25z m20 -20
c-3 -7 -5 -2 -5 12 0 14 2 19 5 13 2 -7 2 -19 0 -25z m-6190 -10 c-3 -8 -6 -5
-6 6 -1 11 2 17 5 13 3 -3 4 -12 1 -19z m6109 -189 c-19 -101 -37 -202 -40
-224 -4 -23 -9 -52 -11 -65 -3 -14 -23 -126 -46 -250 -43 -244 -75 -416 -89
-495 -25 -128 -40 -213 -45 -245 -3 -19 -12 -71 -20 -115 -9 -44 -20 -105 -26
-135 -9 -51 -133 -738 -145 -805 -3 -16 -19 -104 -35 -195 -33 -182 -44 -244
-58 -322 -14 -80 -20 -111 -47 -253 -13 -71 -34 -187 -46 -257 l-22 -128 -48
0 c-26 0 -48 4 -48 8 0 4 18 95 40 202 22 107 49 238 60 290 19 97 139 679
230 1125 29 138 54 261 56 275 3 14 18 86 34 160 15 74 36 171 44 215 22 109
18 91 75 365 27 135 79 391 116 570 36 179 69 341 74 360 5 19 13 55 17 80 4
25 9 40 11 34 2 -7 -12 -94 -31 -195z m51 164 c-3 -10 -5 -4 -5 12 0 17 2 24
5 18 2 -7 2 -21 0 -30z m-56 -604 c-44 -322 -83 -604 -86 -625 -3 -21 -14
-106 -25 -189 -11 -82 -24 -181 -30 -220 -11 -82 -15 -111 -30 -225 -15 -112
-17 -127 -34 -250 -8 -58 -20 -143 -26 -190 -6 -47 -13 -98 -15 -115 -3 -16
-18 -131 -35 -255 -17 -124 -33 -241 -35 -260 -4 -30 -37 -272 -50 -365 -2
-16 -13 -102 -25 -190 -11 -88 -23 -166 -25 -173 -4 -10 -16 -12 -42 -8 -21 3
-39 5 -41 6 -4 0 10 121 22 183 7 40 16 91 21 132 3 22 7 47 10 55 2 8 6 38
10 65 3 28 12 88 20 135 8 47 16 99 19 115 2 17 9 59 15 95 11 67 39 242 47
295 2 17 6 41 9 55 2 14 7 42 10 63 22 157 24 169 28 192 11 53 15 81 62 380
32 210 49 317 60 385 2 14 14 86 25 160 11 74 23 146 25 160 2 14 13 79 24
145 11 66 23 140 26 165 3 25 10 70 15 100 16 96 19 111 54 335 38 245 40 253
58 380 7 50 14 81 16 70 1 -11 -33 -284 -77 -606z m-6104 589 c-3 -8 -6 -5 -6
6 -1 11 2 17 5 13 3 -3 4 -12 1 -19z m6210 -30 c-2 -13 -4 -5 -4 17 -1 22 1
32 4 23 2 -10 2 -28 0 -40z m-102 -284 c-25 -159 -54 -347 -65 -419 -11 -71
-26 -168 -34 -215 -8 -47 -18 -103 -21 -125 -3 -22 -12 -80 -20 -130 -13 -81
-68 -436 -80 -510 -2 -16 -7 -43 -9 -60 -8 -49 -152 -957 -161 -1015 -2 -14
-33 -211 -69 -438 -36 -227 -66 -415 -66 -418 0 -3 -19 -4 -42 -2 -50 4 -52
10 -31 123 8 39 16 84 19 100 2 17 18 100 34 185 16 85 34 182 39 215 6 33 12
70 15 81 2 12 7 37 10 55 5 30 40 226 166 919 21 118 41 229 44 245 15 82 67
373 72 395 3 14 7 39 10 55 3 17 9 53 14 80 5 28 11 61 14 75 2 14 12 66 21
115 19 101 20 107 34 190 12 73 39 221 46 255 6 27 56 308 82 459 9 52 18 90
20 85 2 -6 -17 -140 -42 -300z m-6108 244 c-3 -8 -6 -5 -6 6 -1 11 2 17 5 13
3 -3 4 -12 1 -19z m6200 -25 c-3 -10 -5 -4 -5 12 0 17 2 24 5 18 2 -7 2 -21 0
-30z m30 -50 c-2 -16 -4 -5 -4 22 0 28 2 40 4 28 2 -13 2 -35 0 -50z m-31 -1
c-2 -4 -9 -52 -15 -107 -7 -55 -14 -116 -16 -135 -2 -19 -6 -53 -9 -75 -3 -22
-8 -65 -11 -95 -3 -30 -8 -71 -11 -90 -9 -74 -12 -107 -19 -175 -4 -38 -8 -81
-10 -95 -2 -14 -7 -52 -10 -85 -4 -33 -8 -71 -10 -85 -3 -14 -13 -108 -25
-210 -11 -102 -22 -201 -25 -220 -2 -19 -7 -60 -10 -90 -3 -30 -8 -71 -11 -90
-2 -19 -7 -60 -9 -90 -5 -59 -15 -143 -20 -170 -2 -9 -6 -50 -10 -91 -3 -41
-8 -81 -10 -89 -2 -8 -6 -44 -10 -80 -3 -36 -7 -75 -9 -85 -2 -11 -7 -54 -11
-95 -4 -41 -8 -82 -10 -90 -1 -8 -6 -44 -9 -80 -7 -66 -11 -102 -20 -175 -6
-54 -15 -130 -21 -185 -3 -25 -7 -61 -10 -80 -5 -38 -11 -91 -20 -185 -4 -33
-8 -71 -10 -85 -2 -14 -7 -54 -10 -90 -3 -36 -8 -76 -10 -90 -2 -14 -7 -52
-10 -85 -3 -33 -8 -69 -10 -80 -2 -11 -4 -23 -4 -27 -1 -5 -19 -8 -41 -8 -45
0 -45 -2 -30 100 5 36 12 88 15 115 4 28 8 61 10 75 10 64 48 345 75 555 11
83 22 161 24 175 5 28 15 106 22 160 2 19 6 49 9 65 2 17 7 53 10 80 3 28 8
61 10 75 4 22 50 353 61 440 2 19 6 46 9 60 2 14 7 50 10 80 3 30 8 62 10 70
2 8 7 44 10 80 4 36 9 74 11 85 2 11 11 74 19 140 9 66 18 131 20 145 2 14 6
45 10 70 3 25 8 63 11 85 9 64 12 87 19 145 4 30 9 62 10 71 2 9 6 40 10 70 7
62 11 87 20 147 4 23 8 52 9 65 6 44 20 152 21 157 1 3 7 53 15 112 7 59 17
105 22 102 4 -3 6 -8 4 -12z m67 -7 c-3 -9 -8 -14 -10 -11 -3 3 -2 9 2 15 9
16 15 13 8 -4z m-47 -97 c-4 -40 -9 -98 -12 -128 -2 -30 -6 -75 -9 -100 -3
-25 -7 -74 -10 -110 -3 -36 -8 -81 -10 -100 -3 -19 -7 -63 -10 -97 -11 -134
-16 -189 -20 -223 -2 -19 -7 -69 -10 -110 -4 -41 -8 -86 -10 -100 -2 -14 -6
-61 -10 -105 -3 -44 -8 -96 -10 -115 -2 -19 -6 -64 -10 -100 -3 -36 -8 -85
-10 -110 -3 -25 -7 -77 -10 -116 -3 -39 -7 -84 -9 -100 -2 -16 -7 -63 -10
-104 -7 -80 -14 -146 -21 -220 -2 -25 -7 -76 -10 -115 -3 -38 -8 -88 -10 -110
-3 -22 -7 -65 -10 -95 -3 -30 -7 -82 -10 -115 -3 -33 -8 -80 -10 -105 -5 -61
-15 -166 -20 -215 -2 -22 -7 -71 -10 -110 -3 -38 -8 -83 -10 -100 -2 -16 -7
-73 -11 -125 -3 -52 -8 -97 -9 -100 -2 -3 -6 -45 -10 -95 -4 -49 -9 -101 -10
-115 -2 -14 -4 -37 -4 -52 -1 -25 -4 -27 -41 -25 -29 1 -40 6 -40 17 0 15 24
234 35 320 3 25 8 65 10 90 2 25 6 63 9 85 9 68 26 217 31 270 3 28 8 66 10
85 10 75 15 117 20 170 3 30 8 71 10 90 2 19 7 62 10 95 3 33 8 71 10 85 2 14
7 50 10 80 3 30 8 71 10 90 2 19 7 60 10 90 7 62 13 118 20 170 2 19 7 60 10
90 4 30 8 69 10 85 1 17 6 59 10 95 4 36 8 76 10 90 2 14 7 50 10 80 3 30 7
71 10 90 3 19 7 60 10 90 3 30 7 66 10 80 2 14 7 52 10 85 3 33 8 76 10 95 13
115 23 200 30 270 2 25 7 68 11 95 4 28 8 61 9 75 6 62 17 157 20 180 3 14 7
52 10 85 3 33 7 69 10 80 2 11 4 35 4 53 1 17 4 32 7 32 4 0 3 -33 0 -72z m35
-55 c-6 -65 -13 -161 -16 -213 -4 -52 -8 -115 -10 -140 -2 -25 -7 -90 -10
-145 -3 -55 -8 -111 -10 -125 -2 -14 -7 -77 -10 -140 -3 -63 -7 -131 -10 -150
-5 -42 -13 -147 -20 -255 -3 -44 -7 -105 -10 -135 -3 -30 -7 -93 -10 -140 -5
-92 -13 -193 -20 -280 -3 -30 -7 -91 -10 -135 -3 -44 -7 -105 -10 -135 -5 -61
-13 -170 -20 -272 -3 -38 -7 -101 -10 -140 -3 -40 -8 -102 -10 -138 -3 -36 -7
-101 -10 -145 -3 -44 -8 -100 -10 -125 -2 -25 -6 -88 -10 -140 -3 -52 -8 -113
-10 -135 -4 -47 -18 -244 -18 -262 0 -8 -15 -13 -39 -13 l-40 0 7 78 c3 42 8
88 10 102 2 14 6 59 10 100 11 134 21 247 40 435 2 28 9 100 15 160 5 61 12
135 15 165 11 109 14 146 20 215 4 39 8 86 10 105 2 19 7 69 10 110 4 41 8 91
10 110 2 19 6 69 10 110 3 41 8 86 10 100 2 14 6 63 10 110 3 47 8 101 10 120
6 43 13 117 20 195 5 59 12 139 20 220 8 78 14 151 20 220 3 39 8 88 10 110 3
22 7 67 10 100 10 117 17 190 20 211 2 12 6 61 10 110 3 49 8 103 10 119 2 17
7 65 10 108 4 43 10 76 12 73 3 -3 0 -58 -6 -123z m-6195 17 c-1 -16 -5 -32
-8 -35 -2 -3 -4 7 -2 22 3 41 4 43 8 43 3 0 3 -13 2 -30z m6281 -27 c-3 -10
-5 -4 -5 12 0 17 2 24 5 18 2 -7 2 -21 0 -30z m-50 -75 c-2 -13 -4 -5 -4 17
-1 22 1 32 4 23 2 -10 2 -28 0 -40z m50 30 c-3 -8 -6 -5 -6 6 -1 11 2 17 5 13
3 -3 4 -12 1 -19z m0 -40 c-3 -8 -6 -5 -6 6 -1 11 2 17 5 13 3 -3 4 -12 1 -19z
m-6290 -30 c-3 -8 -6 -5 -6 6 -1 11 2 17 5 13 3 -3 4 -12 1 -19z m6243 2 c0
-5 -5 -10 -11 -10 -5 0 -7 5 -4 10 3 6 8 10 11 10 2 0 4 -4 4 -10z m-14 -167
c-4 -82 -8 -179 -11 -218 -4 -66 -10 -186 -20 -375 -3 -47 -7 -130 -10 -185
-5 -97 -11 -204 -20 -370 -12 -217 -15 -278 -20 -370 -3 -55 -7 -140 -10 -190
-3 -49 -7 -135 -10 -190 -5 -96 -11 -210 -20 -360 -2 -38 -7 -128 -10 -200 -3
-71 -8 -150 -10 -175 -2 -25 -7 -110 -11 -190 -4 -80 -8 -158 -9 -175 -2 -16
-3 -40 -4 -52 -1 -19 -7 -23 -36 -23 l-36 0 6 78 c3 42 8 97 10 122 3 25 7 94
11 155 3 60 7 112 9 115 2 3 6 64 10 135 3 72 8 137 10 145 2 8 7 67 10 130 4
63 8 131 10 150 2 19 6 78 10 130 3 52 8 111 10 130 2 19 6 80 10 135 9 129
13 195 20 275 10 133 22 292 30 420 6 91 14 199 20 260 2 25 7 86 10 135 10
161 15 239 20 285 4 44 15 194 20 275 2 22 3 64 4 93 1 28 4 52 7 52 4 0 4
-66 0 -147z m50 -75 c-4 -117 -9 -258 -11 -313 -2 -55 -7 -174 -10 -265 -3
-91 -7 -219 -10 -285 -10 -274 -16 -419 -20 -570 -6 -173 -11 -335 -20 -570
-11 -290 -14 -382 -20 -565 -4 -102 -8 -223 -10 -270 -2 -47 -4 -102 -4 -122
-1 -37 -2 -38 -36 -38 l-35 0 4 73 c3 39 8 116 11 170 3 53 7 139 10 190 3 50
8 135 10 187 3 52 7 131 10 175 2 44 7 132 10 195 6 114 10 182 20 355 2 50 7
137 10 195 12 246 16 308 20 360 2 30 7 118 10 195 4 77 8 163 10 190 2 28 6
113 10 190 4 77 9 160 10 185 2 25 6 110 10 190 5 80 9 154 10 165 1 11 3 59
4 108 0 48 4 87 7 87 3 0 3 -96 0 -212z m-6229 130 c-2 -13 -4 -5 -4 17 -1 22
1 32 4 23 2 -10 2 -28 0 -40z m95 -30 c-2 -35 -7 -66 -10 -70 -7 -7 -4 97 3
120 8 24 10 11 7 -50z m6185 -70 c-3 -7 -5 -2 -5 12 0 14 2 19 5 13 2 -7 2
-19 0 -25z m-6240 -35 c-3 -10 -5 -2 -5 17 0 19 2 27 5 18 2 -10 2 -26 0 -35z
m40 -30 c-3 -10 -5 -2 -5 17 0 19 2 27 5 18 2 -10 2 -26 0 -35z m6200 15 c-3
-7 -5 -2 -5 12 0 14 2 19 5 13 2 -7 2 -19 0 -25z m58 -47 c3 -5 2 -12 -3 -15
-5 -3 -9 1 -9 9 0 17 3 19 12 6z m-58 -16 c0 -8 -4 -12 -9 -9 -5 3 -6 10 -3
15 9 13 12 11 12 -6z m-2 -66 c-2 -23 -6 -43 -9 -46 -3 -3 -3 12 -2 33 5 53 5
54 10 54 3 0 3 -18 1 -41z m58 16 c-7 -21 -12 -19 -10 4 0 11 5 18 9 15 4 -3
5 -11 1 -19z m-6196 -32 c-3 -10 -5 -4 -5 12 0 17 2 24 5 18 2 -7 2 -21 0 -30z
m-40 -65 c-3 -7 -5 -2 -5 12 0 14 2 19 5 13 2 -7 2 -19 0 -25z m6180 14 c-3
-4 -8 -198 -12 -432 -3 -234 -8 -504 -10 -600 -2 -96 -7 -366 -10 -600 -4
-234 -8 -490 -10 -570 -2 -80 -5 -243 -6 -363 l-3 -218 -31 3 c-28 3 -30 5
-29 43 1 22 5 132 9 245 3 113 8 246 10 295 2 50 6 164 10 255 3 91 7 226 10
300 3 74 7 203 10 285 3 83 7 213 10 290 3 77 7 192 10 255 2 63 7 210 11 325
3 116 8 233 9 260 2 28 4 92 4 143 1 57 5 92 12 92 5 0 8 -3 6 -8z m57 -1392
c1 -882 -3 -1391 -9 -1393 -5 -2 -19 -2 -30 1 -18 3 -21 10 -19 55 1 29 5 255
9 502 4 248 9 518 10 600 1 83 6 344 10 580 4 237 8 491 10 565 2 74 4 215 5
313 1 98 4 176 7 173 3 -3 6 -631 7 -1396z m-6207 1368 c-3 -8 -6 -5 -6 6 -1
11 2 17 5 13 3 -3 4 -12 1 -19z m-40 -80 c-3 -8 -6 -5 -6 6 -1 11 2 17 5 13 3
-3 4 -12 1 -19z m50 -55 c-3 -10 -5 -4 -5 12 0 17 2 24 5 18 2 -7 2 -21 0 -30z
m20 -25 c-3 -7 -5 -2 -5 12 0 14 2 19 5 13 2 -7 2 -19 0 -25z m6 -25 c-7 -2
-13 -14 -14 -26 0 -12 -3 -16 -6 -9 -7 18 4 42 19 41 10 0 10 -2 1 -6z m-26
-95 c-3 -8 -6 -5 -6 6 -1 11 2 17 5 13 3 -3 4 -12 1 -19z m14 -35 c-12 -20
-14 -14 -5 12 4 9 9 14 11 11 3 -2 0 -13 -6 -23z m-111 -1517 c41 -8 154 -28
250 -45 96 -18 222 -41 280 -52 58 -10 130 -24 160 -29 30 -6 129 -24 220 -40
91 -17 390 -71 665 -120 275 -50 574 -104 665 -121 91 -17 262 -48 380 -69
118 -21 364 -66 545 -98 182 -33 353 -64 380 -68 28 -4 45 -9 38 -11 -7 -3
-56 2 -110 11 -54 9 -116 18 -138 21 -22 4 -51 8 -65 11 -14 2 -126 20 -250
39 -217 34 -294 46 -500 80 -52 8 -439 69 -860 135 -421 66 -835 131 -920 145
-85 14 -173 27 -195 30 -22 4 -51 8 -65 11 -14 2 -140 22 -280 44 -140 22
-266 42 -280 44 -14 3 -28 5 -32 5 -5 1 -8 21 -8 46 0 53 0 53 120 31z m8
-112 c53 -8 108 -17 122 -19 14 -2 39 -6 55 -9 17 -3 62 -10 100 -16 39 -5 81
-12 95 -15 14 -3 72 -12 130 -20 58 -9 114 -18 125 -20 11 -3 38 -7 60 -10 45
-6 158 -24 194 -30 13 -2 45 -7 70 -11 25 -4 55 -8 66 -10 11 -2 67 -11 125
-19 58 -9 112 -18 120 -20 8 -2 35 -7 60 -10 25 -3 52 -8 60 -10 8 -2 35 -6
60 -9 25 -3 54 -8 65 -10 11 -2 40 -7 65 -10 25 -3 56 -8 70 -11 14 -3 57 -10
95 -15 82 -12 120 -18 155 -25 14 -3 45 -7 70 -10 25 -3 52 -7 60 -10 8 -2 35
-7 60 -10 25 -4 126 -19 225 -35 99 -16 198 -32 220 -35 40 -6 51 -7 155 -25
30 -5 71 -11 90 -14 91 -13 119 -18 170 -26 30 -5 69 -12 85 -14 17 -3 75 -12
130 -21 55 -8 114 -18 130 -20 17 -2 44 -7 60 -9 60 -10 170 -26 184 -26 8 0
12 -3 9 -6 -6 -5 -129 9 -273 31 -47 7 -106 16 -150 21 -22 3 -74 10 -115 15
-41 6 -88 12 -105 14 -238 32 -425 57 -445 60 -40 6 -102 14 -145 20 -34 4
-196 26 -485 65 -85 12 -359 49 -405 55 -16 2 -68 9 -115 15 -131 17 -153 20
-180 25 -14 2 -43 7 -65 9 -74 10 -350 46 -385 52 -19 3 -100 14 -180 24 -80
11 -199 26 -265 35 -66 9 -131 18 -145 20 -14 3 -49 7 -79 11 -130 14 -136 16
-137 54 -2 58 -7 57 134 34z m-78 -98 c25 -3 61 -8 80 -10 19 -3 51 -8 70 -10
19 -2 73 -10 120 -16 47 -7 96 -13 110 -15 14 -2 63 -8 110 -14 91 -12 107
-15 215 -30 39 -6 124 -17 190 -26 172 -23 165 -22 335 -45 85 -12 166 -23
180 -25 14 -2 48 -6 75 -10 28 -3 129 -17 225 -30 96 -13 198 -27 225 -30 28
-3 62 -8 78 -10 59 -10 83 -13 217 -30 47 -6 114 -15 140 -20 8 -2 44 -6 80
-10 36 -3 72 -8 80 -10 8 -3 35 -7 60 -10 53 -6 264 -34 300 -40 14 -2 45 -6
70 -10 25 -3 63 -8 85 -11 22 -3 51 -7 65 -9 141 -19 207 -28 220 -31 8 -1 27
-3 43 -3 15 -1 27 -6 27 -12 0 -5 -3 -8 -7 -6 -5 3 -38 8 -75 11 -37 4 -77 9
-90 11 -13 2 -50 6 -83 10 -62 6 -128 13 -180 20 -16 2 -57 6 -90 10 -33 3
-76 8 -94 11 -19 3 -55 7 -80 10 -26 2 -68 6 -96 9 -77 9 -115 14 -175 20 -30
3 -66 8 -80 10 -14 2 -54 7 -90 10 -36 3 -76 8 -90 10 -14 2 -52 7 -85 10 -33
4 -76 8 -95 11 -19 2 -57 6 -85 9 -27 4 -68 8 -90 11 -22 2 -56 7 -75 9 -19 3
-62 7 -95 10 -33 3 -69 7 -80 9 -11 2 -54 7 -95 11 -41 3 -86 8 -100 10 -22 4
-299 36 -425 50 -27 3 -88 10 -135 15 -142 17 -163 19 -225 25 -33 3 -67 8
-75 10 -8 2 -49 7 -90 10 -41 4 -88 9 -105 11 -16 2 -57 6 -90 9 -33 4 -66 8
-72 10 -7 2 -50 7 -95 11 -118 9 -125 13 -120 63 2 22 7 39 11 37 4 -3 27 -7
51 -10z m95 -120 c17 -2 55 -7 85 -10 30 -4 71 -9 90 -11 19 -3 62 -7 95 -10
33 -3 71 -7 85 -10 14 -2 54 -7 90 -10 36 -3 76 -8 90 -10 14 -2 53 -7 87 -10
34 -3 70 -7 80 -9 10 -2 52 -7 93 -11 41 -4 82 -9 90 -10 8 -1 47 -6 85 -10
89 -9 119 -12 175 -19 25 -4 68 -9 95 -11 58 -7 104 -12 160 -19 22 -3 65 -8
95 -11 56 -5 221 -24 275 -30 17 -3 73 -9 125 -15 52 -6 109 -13 125 -15 17
-2 57 -7 90 -10 58 -6 194 -21 265 -30 19 -2 60 -7 90 -10 30 -3 89 -10 130
-15 41 -5 98 -12 125 -15 118 -12 161 -17 185 -21 14 -2 56 -7 95 -10 38 -4
130 -15 205 -25 118 -16 90 -18 -55 -4 -22 2 -76 7 -120 10 -44 4 -87 8 -95
10 -8 1 -55 6 -104 10 -49 4 -98 8 -110 10 -11 2 -61 6 -110 10 -50 4 -97 8
-105 10 -9 1 -59 6 -111 10 -52 4 -102 9 -110 10 -8 2 -53 6 -100 9 -47 4 -96
9 -110 11 -14 2 -63 7 -110 10 -47 3 -96 8 -110 10 -14 2 -61 7 -105 10 -44 3
-91 8 -105 10 -14 2 -61 6 -105 10 -44 3 -98 8 -120 10 -103 10 -173 17 -205
20 -19 2 -69 7 -110 10 -41 3 -86 8 -100 10 -14 2 -65 6 -113 10 -48 3 -96 8
-105 10 -9 1 -57 6 -106 10 -50 4 -97 8 -105 10 -9 2 -54 6 -101 9 -147 12
-282 24 -445 41 -22 2 -75 7 -117 11 l-78 6 0 41 0 40 68 -7 c37 -3 81 -8 97
-10z m30 -111 c33 -5 212 -21 320 -30 39 -3 88 -8 110 -10 22 -2 72 -7 110
-10 39 -4 81 -8 95 -10 14 -2 65 -7 114 -10 49 -4 97 -8 107 -10 9 -2 55 -6
101 -10 45 -3 94 -8 108 -10 14 -2 63 -6 110 -10 47 -4 96 -8 110 -10 14 -2
59 -6 100 -10 41 -3 120 -10 175 -16 96 -9 150 -14 260 -24 28 -3 75 -7 105
-10 30 -3 84 -7 120 -10 36 -3 101 -10 145 -14 44 -5 87 -9 95 -9 8 0 40 -3
70 -6 58 -6 109 -11 225 -21 39 -4 81 -8 95 -10 14 -2 66 -7 115 -11 50 -3 97
-8 106 -9 9 -2 54 -6 100 -10 46 -4 113 -11 149 -15 51 -7 41 -7 -45 -4 -60 3
-130 7 -155 9 -69 6 -177 14 -260 20 -171 12 -219 15 -420 30 -25 2 -83 6
-130 10 -47 3 -110 8 -140 10 -30 3 -89 7 -130 10 -41 3 -100 7 -130 10 -30 2
-93 7 -140 10 -47 3 -110 8 -140 10 -30 2 -95 7 -145 10 -49 3 -110 8 -135 10
-25 3 -83 7 -130 10 -103 6 -210 14 -270 20 -25 3 -92 7 -150 11 -58 3 -121 7
-140 9 -19 2 -80 6 -135 10 -55 3 -116 8 -135 10 -19 2 -84 7 -145 10 -60 4
-118 9 -128 11 -10 1 -44 4 -77 5 l-60 2 0 40 0 39 83 -6 c45 -4 96 -9 112
-11z m20 -111 c50 -4 106 -8 125 -9 72 -4 226 -16 270 -20 25 -2 88 -7 140
-10 52 -4 120 -8 150 -10 91 -7 190 -15 275 -20 44 -4 96 -8 115 -10 19 -2 82
-7 140 -10 58 -3 121 -8 140 -10 19 -2 80 -7 135 -10 55 -4 116 -8 135 -10 19
-2 82 -6 140 -10 58 -4 121 -8 140 -10 19 -1 78 -6 130 -9 52 -4 115 -9 140
-11 25 -2 86 -7 135 -10 50 -3 113 -7 140 -10 52 -4 189 -15 265 -20 206 -13
266 -18 331 -25 60 -7 50 -8 -51 -4 -69 3 -156 7 -195 9 -38 3 -117 7 -175 10
-58 3 -143 7 -190 10 -47 2 -132 7 -190 10 -58 3 -139 8 -180 10 -41 3 -124 7
-185 10 -60 3 -144 7 -185 10 -41 2 -127 7 -190 10 -63 3 -144 8 -180 10 -36
2 -119 7 -185 10 -66 3 -149 8 -185 10 -36 2 -123 6 -195 10 -71 3 -152 8
-180 10 -27 2 -113 7 -190 10 -77 4 -160 8 -185 10 -25 2 -112 6 -195 10 -243
11 -234 9 -227 55 l4 31 62 -5 c33 -3 102 -8 151 -12z m3525 -74 c-8 -5 -24
-9 -35 -9 -16 1 -16 2 5 9 35 11 48 11 30 0z m-3515 -34 c159 -9 258 -14 385
-21 129 -7 221 -12 370 -20 63 -3 140 -8 170 -10 30 -2 118 -7 195 -10 77 -4
163 -8 190 -10 28 -2 109 -6 180 -10 127 -5 234 -11 365 -20 36 -2 121 -7 190
-10 69 -3 152 -8 185 -10 33 -2 121 -7 195 -10 74 -4 153 -8 175 -10 22 -2 73
-4 113 -6 39 -1 72 -5 72 -9 0 -4 -26 -6 -57 -5 -57 3 -382 14 -578 20 -55 2
-174 6 -265 10 -287 11 -692 25 -850 30 -189 6 -493 16 -575 20 -44 2 -172 7
-285 10 -113 4 -236 9 -275 10 -38 2 -84 4 -101 4 -29 1 -31 3 -29 34 2 17 3
33 4 34 1 1 25 0 54 -2 28 -2 106 -6 172 -9z m3548 -3 c-7 -2 -19 -2 -25 0 -7
3 -2 5 12 5 14 0 19 -2 13 -5z m92 -3 c-11 -5 -33 -8 -50 -8 -29 1 -29 1 5 8
49 10 69 10 45 0z m-305 -20 c0 -5 -8 -7 -17 -5 -10 2 -28 4 -40 4 -13 1 -23
4 -23 9 0 4 18 6 40 4 22 -2 40 -8 40 -12z m173 3 c-7 -2 -19 -2 -25 0 -7 3
-2 5 12 5 14 0 19 -2 13 -5z m232 -3 c-3 -5 -12 -10 -18 -10 -7 0 -6 4 3 10
19 12 23 12 15 0z m-362 -7 c-7 -2 -19 -2 -25 0 -7 3 -2 5 12 5 14 0 19 -2 13
-5z m200 0 c-7 -2 -19 -2 -25 0 -7 3 -2 5 12 5 14 0 19 -2 13 -5z m-110 -10
c-7 -2 -21 -2 -30 0 -10 3 -4 5 12 5 17 0 24 -2 18 -5z m-125 -20 c-10 -2 -26
-2 -35 0 -10 3 -2 5 17 5 19 0 27 -2 18 -5z m105 -10 c-7 -2 -19 -2 -25 0 -7
3 -2 5 12 5 14 0 19 -2 13 -5z m-238 -21 c-3 -3 -11 0 -18 7 -9 10 -8 11 6 5
10 -3 15 -9 12 -12z m63 1 c-10 -2 -26 -2 -35 0 -10 3 -2 5 17 5 19 0 27 -2
18 -5z m-3243 -18 c127 -4 259 -8 295 -10 36 -2 160 -6 275 -10 116 -3 248 -8
295 -10 47 -2 173 -7 280 -10 107 -4 231 -9 275 -10 44 -2 179 -6 300 -10 121
-4 249 -9 285 -10 129 -5 496 -18 532 -18 21 0 35 -3 33 -7 -2 -4 -62 -6 -132
-4 -70 1 -290 5 -488 8 -340 6 -654 12 -1160 21 -121 2 -404 7 -630 10 -225 4
-412 9 -414 11 -17 16 0 71 18 60 3 -2 110 -7 236 -11z m3121 -17 c3 -4 -1 -5
-10 -4 -8 1 -18 5 -22 8 -3 4 1 5 10 4 8 -1 18 -5 22 -8z m71 -4 c-3 -3 -12
-4 -19 -1 -8 3 -5 6 6 6 11 1 17 -2 13 -5z m-287 -28 c14 -2 -12 -4 -57 -5
-46 0 -83 2 -83 7 0 6 81 6 140 -2z m117 -12 c-3 -3 -12 -4 -19 -1 -8 3 -5 6
6 6 11 1 17 -2 13 -5z m61 -1 c-10 -2 -26 -2 -35 0 -10 3 -2 5 17 5 19 0 27
-2 18 -5z m-318 -37 c19 -1 -13 -3 -72 -4 -60 -1 -108 1 -108 6 0 6 96 6 180
-2z m-1990 -21 c102 -2 370 -7 595 -11 226 -3 471 -8 545 -9 74 -2 208 -3 298
-4 89 -1 162 -4 162 -8 0 -6 -2467 -9 -2616 -4 -16 1 -21 7 -21 27 l0 26 426
-7 c234 -4 509 -8 611 -10z m1653 -32 c-7 -2 -21 -2 -30 0 -10 3 -4 5 12 5 17
0 24 -2 18 -5z m51 -5 c-3 -4 -11 -5 -19 -1 -21 7 -19 12 4 10 11 0 18 -5 15
-9z"/>
<path d="M1511 6485 c-1 -11 -4 -31 -6 -45 l-6 -25 11 25 c6 13 9 33 7 45 -4
19 -4 19 -6 0z"/>
<path d="M1382 6385 c-7 -35 -15 -72 -19 -82 -3 -10 -3 -15 2 -11 10 10 44
158 35 158 -3 0 -12 -29 -18 -65z"/>
<path d="M1487 6383 c-3 -15 -17 -75 -31 -132 -13 -57 -21 -99 -17 -95 10 12
64 244 58 250 -2 3 -7 -8 -10 -23z"/>
<path d="M3147 6302 c-12 -5 1 -8 35 -8 29 0 67 -4 83 -8 20 -5 27 -4 20 2
-13 14 -115 23 -138 14z"/>
<path d="M3185 6280 c27 -12 43 -12 25 0 -8 5 -22 9 -30 9 -10 0 -8 -3 5 -9z"/>
<path d="M3305 6280 c3 -5 14 -10 23 -10 15 0 15 2 2 10 -20 13 -33 13 -25 0z"/>
<path d="M3350 6272 c0 -5 6 -9 13 -9 6 0 59 -10 117 -22 58 -13 116 -25 130
-27 14 -3 32 -7 40 -9 8 -2 31 -7 50 -10 19 -3 42 -8 50 -10 8 -2 31 -7 50
-10 19 -3 51 -10 70 -15 43 -12 60 -12 40 -1 -8 5 -35 12 -60 17 -25 4 -47 8
-50 9 -25 5 -90 18 -109 21 -12 3 -51 11 -85 19 -33 8 -77 17 -96 20 -19 3
-51 10 -70 14 -77 19 -90 21 -90 13z"/>
<path d="M3298 6258 c5 -5 16 -8 23 -6 8 3 3 7 -10 11 -17 4 -21 3 -13 -5z"/>
<path d="M1339 6179 c-9 -38 -13 -69 -9 -69 7 0 35 129 28 135 -2 2 -10 -27
-19 -66z"/>
<path d="M3378 6238 c5 -5 16 -8 23 -6 8 3 3 7 -10 11 -17 4 -21 3 -13 -5z"/>
<path d="M3428 6223 c6 -2 18 -2 25 0 6 3 1 5 -13 5 -14 0 -19 -2 -12 -5z"/>
<path d="M3478 6213 c7 -3 16 -2 19 1 4 3 -2 6 -13 5 -11 0 -14 -3 -6 -6z"/>
<path d="M3568 6193 c7 -3 16 -2 19 1 4 3 -2 6 -13 5 -11 0 -14 -3 -6 -6z"/>
<path d="M3608 6183 c7 -3 16 -2 19 1 4 3 -2 6 -13 5 -11 0 -14 -3 -6 -6z"/>
<path d="M3658 6173 c7 -3 16 -2 19 1 4 3 -2 6 -13 5 -11 0 -14 -3 -6 -6z"/>
<path d="M3698 6163 c7 -3 16 -2 19 1 4 3 -2 6 -13 5 -11 0 -14 -3 -6 -6z"/>
<path d="M3738 6153 c7 -3 16 -2 19 1 4 3 -2 6 -13 5 -11 0 -14 -3 -6 -6z"/>
<path d="M3935 6152 c6 -6 30 -13 55 -17 25 -3 61 -10 80 -15 42 -12 56 -12
46 -2 -4 4 -11 7 -14 8 -6 0 -66 11 -115 20 -10 2 -28 6 -40 10 -15 4 -19 3
-12 -4z"/>
<path d="M3770 6146 c0 -2 11 -6 25 -8 13 -3 22 -1 19 3 -5 9 -44 13 -44 5z"/>
<path d="M1425 6110 c-4 -17 -5 -34 -2 -36 2 -3 7 10 11 27 8 42 0 50 -9 9z"/>
<path d="M3838 6133 c7 -3 16 -2 19 1 4 3 -2 6 -13 5 -11 0 -14 -3 -6 -6z"/>
<path d="M3918 6113 c7 -3 16 -2 19 1 4 3 -2 6 -13 5 -11 0 -14 -3 -6 -6z"/>
<path d="M4130 6112 c0 -4 10 -9 22 -9 18 -2 20 0 8 7 -18 12 -30 13 -30 2z"/>
<path d="M3950 6106 c0 -2 9 -6 20 -9 11 -3 18 -1 14 4 -5 9 -34 13 -34 5z"/>
<path d="M4185 6102 c11 -11 94 -29 84 -18 -4 4 -16 9 -28 11 -13 2 -32 7 -44
11 -15 4 -19 3 -12 -4z"/>
<path d="M1321 6084 c0 -11 3 -14 6 -6 3 7 2 16 -1 19 -3 4 -6 -2 -5 -13z"/>
<path d="M4038 6083 c6 -2 18 -2 25 0 6 3 1 5 -13 5 -14 0 -19 -2 -12 -5z"/>
<path d="M4285 6080 c3 -5 11 -10 16 -10 6 0 7 5 4 10 -3 6 -11 10 -16 10 -6
0 -7 -4 -4 -10z"/>
<path d="M4118 6068 c5 -5 16 -8 23 -6 8 3 3 7 -10 11 -17 4 -21 3 -13 -5z"/>
<path d="M4325 6070 c3 -5 16 -10 28 -9 21 0 21 1 2 9 -28 12 -37 12 -30 0z"/>
<path d="M4380 6058 c0 -6 3 -9 6 -5 3 3 16 2 28 -3 13 -4 39 -11 59 -14 20
-3 77 -15 128 -26 50 -11 94 -18 97 -15 3 3 3 5 1 6 -2 0 -11 2 -19 4 -8 2
-31 6 -50 10 -19 3 -54 10 -78 16 -23 5 -59 12 -79 15 -20 3 -47 10 -60 15
-31 12 -33 11 -33 -3z"/>
<path d="M1316 6052 c-8 -14 -77 -364 -73 -375 2 -6 18 65 36 158 19 93 37
182 42 197 7 27 5 36 -5 20z"/>
<path d="M1406 6038 c-3 -13 -5 -32 -5 -43 1 -11 5 -2 10 19 10 42 6 62 -5 24z"/>
<path d="M4170 6056 c0 -2 9 -6 20 -9 11 -3 18 -1 14 4 -5 9 -34 13 -34 5z"/>
<path d="M4235 6040 c11 -5 29 -8 40 -8 16 0 15 2 -5 8 -34 11 -60 11 -35 0z"/>
<path d="M4308 6023 c7 -3 16 -2 19 1 4 3 -2 6 -13 5 -11 0 -14 -3 -6 -6z"/>
<path d="M4348 6013 c7 -3 16 -2 19 1 4 3 -2 6 -13 5 -11 0 -14 -3 -6 -6z"/>
<path d="M4400 6000 c14 -4 34 -8 45 -8 16 0 15 2 -5 8 -14 4 -34 8 -45 8 -16
0 -15 -2 5 -8z"/>
<path d="M4720 5990 c8 -5 22 -9 30 -9 10 0 8 3 -5 9 -27 12 -43 12 -25 0z"/>
<path d="M4490 5980 c14 -4 34 -8 45 -8 16 0 15 2 -5 8 -14 4 -34 8 -45 8 -16
0 -15 -2 5 -8z"/>
<path d="M4770 5981 c0 -6 8 -11 18 -12 9 0 28 -3 41 -5 28 -5 23 5 -5 10 -11
3 -27 7 -36 11 -11 4 -18 3 -18 -4z"/>
<path d="M4568 5963 c7 -3 16 -2 19 1 4 3 -2 6 -13 5 -11 0 -14 -3 -6 -6z"/>
<path d="M4860 5962 c0 -5 11 -12 25 -14 14 -3 25 -1 25 3 0 5 -4 9 -9 9 -5 0
-16 3 -25 6 -9 3 -16 2 -16 -4z"/>
<path d="M4608 5953 c7 -3 16 -2 19 1 4 3 -2 6 -13 5 -11 0 -14 -3 -6 -6z"/>
<path d="M4927 5949 c10 -10 23 -13 93 -23 58 -7 42 0 -39 18 -35 8 -60 11
-54 5z"/>
<path d="M4648 5943 c6 -2 18 -2 25 0 6 3 1 5 -13 5 -14 0 -19 -2 -12 -5z"/>
<path d="M1383 5925 c-3 -9 -3 -18 -1 -21 3 -3 8 4 11 16 6 23 -1 27 -10 5z"/>
<path d="M4690 5936 c0 -2 9 -6 20 -9 11 -3 18 -1 14 4 -5 9 -34 13 -34 5z"/>
<path d="M5070 5921 c0 -5 23 -13 50 -18 28 -6 50 -6 50 -2 0 5 -11 9 -24 9
-14 0 -36 4 -50 10 -14 5 -26 6 -26 1z"/>
<path d="M4778 5913 c6 -2 18 -2 25 0 6 3 1 5 -13 5 -14 0 -19 -2 -12 -5z"/>
<path d="M4828 5903 c7 -3 16 -2 19 1 4 3 -2 6 -13 5 -11 0 -14 -3 -6 -6z"/>
<path d="M4868 5893 c6 -2 18 -2 25 0 6 3 1 5 -13 5 -14 0 -19 -2 -12 -5z"/>
<path d="M5181 5896 c2 -2 18 -6 34 -10 22 -5 26 -4 15 4 -14 9 -59 15 -49 6z"/>
<path d="M1366 5859 c-8 -42 0 -50 9 -9 4 17 5 34 2 36 -2 3 -7 -10 -11 -27z"/>
<path d="M5250 5878 c0 -6 3 -9 6 -6 3 3 29 0 57 -8 29 -8 53 -14 55 -14 1 0
2 5 2 12 0 6 -3 9 -6 6 -3 -3 -29 0 -57 8 -29 8 -53 14 -54 14 -2 0 -3 -5 -3
-12z"/>
<path d="M4958 5873 c7 -3 16 -2 19 1 4 3 -2 6 -13 5 -11 0 -14 -3 -6 -6z"/>
<path d="M4998 5863 c7 -3 16 -2 19 1 4 3 -2 6 -13 5 -11 0 -14 -3 -6 -6z"/>
<path d="M5031 5856 c2 -2 22 -6 44 -9 28 -5 34 -4 20 3 -19 8 -73 14 -64 6z"/>
<path d="M5395 5851 c31 -13 93 -24 75 -13 -8 5 -33 12 -55 16 -26 4 -33 3
-20 -3z"/>
<path d="M5155 5833 c11 -12 155 -47 162 -40 2 3 -31 13 -74 22 -43 9 -82 20
-88 23 -7 3 -7 1 0 -5z"/>
<path d="M5500 5831 c8 -5 40 -14 70 -20 30 -6 66 -13 80 -16 50 -11 95 -17
90 -11 -3 3 -21 8 -40 11 -19 4 -39 8 -45 9 -5 1 -37 8 -70 15 -33 7 -69 15
-80 17 -16 4 -17 3 -5 -5z"/>
<path d="M1355 5798 c-12 -37 -35 -142 -32 -145 4 -3 10 18 36 120 9 34 6 53
-4 25z"/>
<path d="M5345 5784 c75 -20 88 -23 79 -14 -5 5 -29 11 -54 14 -25 3 -36 3
-25 0z"/>
<path d="M5750 5780 c0 -6 6 -10 14 -10 8 0 21 -3 30 -6 10 -4 16 -1 16 7 0 7
-3 10 -6 6 -3 -3 -17 -2 -30 3 -15 6 -24 6 -24 0z"/>
<path d="M5450 5760 c8 -5 24 -10 34 -10 26 0 18 6 -19 14 -22 5 -26 4 -15 -4z"/>
<path d="M5820 5766 c0 -2 7 -6 15 -10 8 -3 15 -1 15 4 0 6 -7 10 -15 10 -8 0
-15 -2 -15 -4z"/>
<path d="M5880 5750 c14 -4 32 -8 40 -9 13 -1 13 0 0 9 -8 5 -26 9 -40 9 l-25
-1 25 -8z"/>
<path d="M5530 5740 c14 -4 34 -8 45 -8 16 0 15 2 -5 8 -14 4 -34 8 -45 8 -16
0 -15 -2 5 -8z"/>
<path d="M5945 5740 c-3 -4 12 -10 33 -13 20 -3 48 -8 62 -11 72 -16 85 -18
80 -13 -11 11 -170 45 -175 37z"/>
<path d="M5608 5723 c7 -3 16 -2 19 1 4 3 -2 6 -13 5 -11 0 -14 -3 -6 -6z"/>
<path d="M5640 5716 c0 -2 11 -6 25 -8 13 -3 22 -1 19 3 -5 9 -44 13 -44 5z"/>
<path d="M6130 5701 c0 -4 51 -17 113 -29 61 -12 123 -24 137 -27 14 -3 41 -7
60 -10 35 -5 35 -5 5 5 -16 5 -43 12 -60 14 -16 3 -81 16 -142 29 -62 14 -113
21 -113 18z"/>
<path d="M5775 5685 c27 -8 51 -12 53 -10 5 5 -69 25 -88 24 -8 0 7 -7 35 -14z"/>
<path d="M5870 5661 c37 -12 109 -22 85 -12 -11 5 -40 11 -65 15 -30 4 -36 3
-20 -3z"/>
<path d="M1231 5644 c0 -11 3 -14 6 -6 3 7 2 16 -1 19 -3 4 -6 -2 -5 -13z"/>
<path d="M5988 5638 c5 -5 16 -8 23 -6 8 3 3 7 -10 11 -17 4 -21 3 -13 -5z"/>
<path d="M1301 5574 c-7 -30 -11 -57 -8 -60 2 -2 9 21 16 52 7 30 11 57 8 60
-2 2 -9 -21 -16 -52z"/>
<path d="M6050 5620 c34 -11 60 -11 35 0 -11 5 -29 8 -40 8 -16 0 -15 -2 5 -8z"/>
<path d="M6481 5626 c12 -10 60 -16 54 -6 -3 5 -18 10 -32 10 -15 0 -24 -2
-22 -4z"/>
<path d="M1215 5575 c-3 -26 -4 -49 -2 -51 3 -3 8 16 12 41 3 26 4 49 2 51 -3
3 -8 -16 -12 -41z"/>
<path d="M6130 5600 c14 -4 34 -8 45 -8 16 0 15 2 -5 8 -14 4 -34 8 -45 8 -16
0 -15 -2 5 -8z"/>
<path d="M6208 5583 c7 -3 16 -2 19 1 4 3 -2 6 -13 5 -11 0 -14 -3 -6 -6z"/>
<path d="M6260 5571 c37 -12 109 -22 85 -12 -11 5 -40 11 -65 15 -30 4 -36 3
-20 -3z"/>
<path d="M6378 5548 c5 -5 16 -8 23 -6 8 3 3 7 -10 11 -17 4 -21 3 -13 -5z"/>
<path d="M6465 5524 c28 -7 57 -13 65 -13 8 0 -7 7 -35 15 -27 7 -57 13 -65
13 -8 0 8 -7 35 -15z"/>
<path d="M1200 5499 c-1 -8 -7 -40 -14 -71 -8 -32 -11 -58 -7 -58 8 0 34 131
26 138 -3 3 -5 -1 -5 -9z"/>
<path d="M6570 5500 c34 -11 60 -11 35 0 -11 5 -29 8 -40 8 -16 0 -15 -2 5 -8z"/>
<path d="M1276 5464 c-4 -20 -5 -38 -3 -40 3 -3 8 11 11 32 4 20 5 38 3 40 -3
3 -8 -11 -11 -32z"/>
<path d="M6630 5489 c0 -5 9 -9 20 -9 11 0 20 2 20 4 0 2 -9 6 -20 9 -11 3
-20 1 -20 -4z"/>
<path d="M1252 5358 c-7 -28 -11 -53 -8 -55 2 -2 9 19 16 47 7 28 10 53 8 55
-3 3 -10 -18 -16 -47z"/>
<path d="M1165 5330 c-4 -17 -5 -34 -2 -36 2 -3 7 10 11 27 8 42 0 50 -9 9z"/>
<path d="M1229 5263 c-5 -14 -9 -33 -7 -41 2 -9 8 3 14 26 13 47 9 56 -7 15z"/>
<path d="M1155 5268 c-10 -28 -35 -161 -31 -165 2 -3 9 22 16 54 6 32 15 73
20 91 8 31 4 45 -5 20z"/>
<path d="M1203 5154 c-6 -25 -7 -42 -3 -37 9 9 25 83 18 83 -3 0 -9 -21 -15
-46z"/>
<path d="M1185 5070 c-4 -17 -5 -34 -2 -36 2 -3 7 10 11 27 8 42 0 50 -9 9z"/>
<path d="M1107 5053 c-3 -21 -33 -170 -66 -332 -33 -162 -59 -297 -56 -299 3
-3 5 -3 5 -1 0 6 116 573 128 627 6 23 6 42 2 42 -4 0 -10 -17 -13 -37z"/>
<path d="M1172 5000 c0 -14 2 -19 5 -12 2 6 2 18 0 25 -3 6 -5 1 -5 -13z"/>
<path d="M1161 4954 c0 -11 3 -14 6 -6 3 7 2 16 -1 19 -3 4 -6 -2 -5 -13z"/>
<path d="M1151 4914 c0 -11 3 -14 6 -6 3 7 2 16 -1 19 -3 4 -6 -2 -5 -13z"/>
<path d="M1141 4874 c0 -11 3 -14 6 -6 3 7 2 16 -1 19 -3 4 -6 -2 -5 -13z"/>
<path d="M1131 4834 c0 -11 3 -14 6 -6 3 7 2 16 -1 19 -3 4 -6 -2 -5 -13z"/>
<path d="M1121 4794 c0 -11 3 -14 6 -6 3 7 2 16 -1 19 -3 4 -6 -2 -5 -13z"/>
<path d="M1112 4750 c0 -14 2 -19 5 -12 2 6 2 18 0 25 -3 6 -5 1 -5 -13z"/>
<path d="M1101 4704 c0 -11 3 -14 6 -6 3 7 2 16 -1 19 -3 4 -6 -2 -5 -13z"/>
<path d="M1091 4654 c0 -11 3 -14 6 -6 3 7 2 16 -1 19 -3 4 -6 -2 -5 -13z"/>
<path d="M1081 4614 c0 -11 3 -14 6 -6 3 7 2 16 -1 19 -3 4 -6 -2 -5 -13z"/>
<path d="M1071 4574 c0 -11 3 -14 6 -6 3 7 2 16 -1 19 -3 4 -6 -2 -5 -13z"/>
<path d="M1062 4530 c0 -14 2 -19 5 -12 2 6 2 18 0 25 -3 6 -5 1 -5 -13z"/>
<path d="M1051 4484 c0 -11 3 -14 6 -6 3 7 2 16 -1 19 -3 4 -6 -2 -5 -13z"/>
<path d="M1041 4444 c0 -11 3 -14 6 -6 3 7 2 16 -1 19 -3 4 -6 -2 -5 -13z"/>
<path d="M947 4264 c-16 -80 -27 -147 -25 -149 2 -3 18 63 34 145 17 83 28
150 25 150 -3 0 -19 -66 -34 -146z"/>
<path d="M1026 4374 c-4 -14 -5 -28 -3 -31 3 -2 8 8 11 23 4 14 5 28 3 31 -3
2 -8 -8 -11 -23z"/>
<path d="M1012 4310 c0 -14 2 -19 5 -12 2 6 2 18 0 25 -3 6 -5 1 -5 -13z"/>
<path d="M1001 4264 c0 -11 3 -14 6 -6 3 7 2 16 -1 19 -3 4 -6 -2 -5 -13z"/>
<path d="M986 4214 c-4 -14 -5 -28 -3 -31 3 -2 8 8 11 23 4 14 5 28 3 31 -3 2
-8 -8 -11 -23z"/>
<path d="M971 4134 c0 -11 3 -14 6 -6 3 7 2 16 -1 19 -3 4 -6 -2 -5 -13z"/>
<path d="M957 4090 c-3 -11 -1 -20 4 -20 5 0 9 9 9 20 0 11 -2 20 -4 20 -2 0
-6 -9 -9 -20z"/>
<path d="M892 4004 c-7 -37 -10 -69 -7 -72 3 -3 5 1 5 9 1 8 7 40 14 72 8 31
11 57 7 57 -3 0 -12 -30 -19 -66z"/>
<path d="M951 4044 c0 -11 3 -14 6 -6 3 7 2 16 -1 19 -3 4 -6 -2 -5 -13z"/>
<path d="M941 4004 c0 -11 3 -14 6 -6 3 7 2 16 -1 19 -3 4 -6 -2 -5 -13z"/>
<path d="M931 3968 c0 -9 -4 -25 -7 -35 -5 -17 -5 -17 6 0 6 10 9 25 7 35 -4
15 -5 15 -6 0z"/>
<path d="M870 3898 c0 -2 -16 -83 -35 -178 -35 -172 -39 -197 -31 -189 8 8 76
362 71 367 -3 3 -5 3 -5 0z"/>
<path d="M893 3805 c-3 -9 -3 -18 -1 -21 3 -3 8 4 11 16 6 23 -1 27 -10 5z"/>
<path d="M882 3750 c0 -14 2 -19 5 -12 2 6 2 18 0 25 -3 6 -5 1 -5 -13z"/>
<path d="M6431 3714 c0 -11 3 -14 6 -6 3 7 2 16 -1 19 -3 4 -6 -2 -5 -13z"/>
<path d="M861 3664 c0 -11 3 -14 6 -6 3 7 2 16 -1 19 -3 4 -6 -2 -5 -13z"/>
<path d="M851 3614 c0 -11 3 -14 6 -6 3 7 2 16 -1 19 -3 4 -6 -2 -5 -13z"/>
<path d="M6401 3584 c0 -11 3 -14 6 -6 3 7 2 16 -1 19 -3 4 -6 -2 -5 -13z"/>
<path d="M842 3570 c0 -14 2 -19 5 -12 2 6 2 18 0 25 -3 6 -5 1 -5 -13z"/>
<path d="M6391 3534 c0 -11 3 -14 6 -6 3 7 2 16 -1 19 -3 4 -6 -2 -5 -13z"/>
<path d="M827 3521 c-4 -17 -3 -21 5 -13 5 5 8 16 6 23 -3 8 -7 3 -11 -10z"/>
<path d="M775 3433 c-9 -49 -19 -96 -21 -106 -2 -10 -6 -27 -9 -37 -11 -36
-22 -120 -15 -120 3 0 11 30 18 68 6 37 13 78 16 92 23 102 37 182 33 186 -2
3 -12 -35 -22 -83z"/>
<path d="M6381 3494 c0 -11 3 -14 6 -6 3 7 2 16 -1 19 -3 4 -6 -2 -5 -13z"/>
<path d="M6367 3451 c-4 -17 -3 -21 5 -13 5 5 8 16 6 23 -3 8 -7 3 -11 -10z"/>
<path d="M811 3444 c0 -11 3 -14 6 -6 3 7 2 16 -1 19 -3 4 -6 -2 -5 -13z"/>
<path d="M801 3404 c0 -11 3 -14 6 -6 3 7 2 16 -1 19 -3 4 -6 -2 -5 -13z"/>
<path d="M6361 3413 c-1 -6 -4 -20 -7 -30 -5 -17 -5 -17 6 0 6 10 9 23 6 30
-3 9 -5 9 -5 0z"/>
<path d="M6341 3324 c0 -11 3 -14 6 -6 3 7 2 16 -1 19 -3 4 -6 -2 -5 -13z"/>
<path d="M765 3249 c-4 -6 -5 -12 -2 -15 2 -3 7 2 10 11 7 17 1 20 -8 4z"/>
<path d="M6302 3160 c0 -14 2 -19 5 -12 2 6 2 18 0 25 -3 6 -5 1 -5 -13z"/>
<path d="M741 3134 c0 -11 3 -14 6 -6 3 7 2 16 -1 19 -3 4 -6 -2 -5 -13z"/>
<path d="M6292 3110 c0 -14 2 -19 5 -12 2 6 2 18 0 25 -3 6 -5 1 -5 -13z"/>
<path d="M731 3094 c0 -11 3 -14 6 -6 3 7 2 16 -1 19 -3 4 -6 -2 -5 -13z"/>
<path d="M703 3088 c0 -7 -5 -37 -12 -67 -6 -30 -9 -56 -6 -59 3 -3 5 3 6 14
1 15 3 13 9 -6 5 -19 7 -12 6 25 0 28 2 62 7 78 4 15 4 27 -1 27 -5 0 -9 -6
-9 -12z"/>
<path d="M6271 3028 c0 -9 -4 -25 -7 -35 -5 -17 -5 -17 6 0 6 10 9 25 7 35 -4
15 -5 15 -6 0z"/>
<path d="M711 3014 c0 -11 3 -14 6 -6 3 7 2 16 -1 19 -3 4 -6 -2 -5 -13z"/>
<path d="M687 2929 c4 -13 8 -18 11 -10 2 7 -1 18 -6 23 -8 8 -9 4 -5 -13z"/>
<path d="M6252 2930 c0 -14 2 -19 5 -12 2 6 2 18 0 25 -3 6 -5 1 -5 -13z"/>
<path d="M671 2915 c0 -11 4 -27 9 -35 9 -13 10 -13 9 0 0 8 -4 24 -9 35 l-9
20 0 -20z"/>
<path d="M6241 2884 c0 -11 3 -14 6 -6 3 7 2 16 -1 19 -3 4 -6 -2 -5 -13z"/>
<path d="M6231 2844 c0 -11 3 -14 6 -6 3 7 2 16 -1 19 -3 4 -6 -2 -5 -13z"/>
<path d="M6221 2804 c0 -11 3 -14 6 -6 3 7 2 16 -1 19 -3 4 -6 -2 -5 -13z"/>
<path d="M6211 2768 c0 -9 -4 -25 -7 -35 -5 -17 -5 -17 6 0 6 10 9 25 7 35 -4
15 -5 15 -6 0z"/>
<path d="M6187 2671 c-4 -17 -3 -21 5 -13 5 5 8 16 6 23 -3 8 -7 3 -11 -10z"/>
<path d="M6175 2610 c-4 -17 -5 -34 -2 -36 2 -3 7 10 11 27 8 42 0 50 -9 9z"/>
<path d="M6161 2544 c0 -11 3 -14 6 -6 3 7 2 16 -1 19 -3 4 -6 -2 -5 -13z"/>
<path d="M6146 2484 c-4 -14 -5 -28 -3 -31 3 -2 8 8 11 23 4 14 5 28 3 31 -3
2 -8 -8 -11 -23z"/>
<path d="M6131 2414 c0 -11 3 -14 6 -6 3 7 2 16 -1 19 -3 4 -6 -2 -5 -13z"/>
<path d="M6116 2359 c-8 -42 0 -50 9 -9 4 17 5 34 2 36 -2 3 -7 -10 -11 -27z"/>
<path d="M6102 2290 c0 -14 2 -19 5 -12 2 6 2 18 0 25 -3 6 -5 1 -5 -13z"/>
<path d="M6086 2224 c-4 -20 -5 -38 -3 -40 3 -3 8 11 11 32 4 20 5 38 3 40 -3
3 -8 -11 -11 -32z"/>
<path d="M6071 2154 c0 -11 3 -14 6 -6 3 7 2 16 -1 19 -3 4 -6 -2 -5 -13z"/>
<path d="M6061 2114 c0 -11 3 -14 6 -6 3 7 2 16 -1 19 -3 4 -6 -2 -5 -13z"/>
<path d="M6052 2070 c0 -14 2 -19 5 -12 2 6 2 18 0 25 -3 6 -5 1 -5 -13z"/>
<path d="M6041 2024 c0 -11 3 -14 6 -6 3 7 2 16 -1 19 -3 4 -6 -2 -5 -13z"/>
<path d="M6031 1974 c0 -11 3 -14 6 -6 3 7 2 16 -1 19 -3 4 -6 -2 -5 -13z"/>
<path d="M6015 1920 c-4 -17 -5 -34 -2 -36 2 -3 7 10 11 27 8 42 0 50 -9 9z"/>
<path d="M5991 1814 c-6 -32 -9 -59 -7 -61 2 -3 10 21 16 52 6 31 10 59 7 61
-2 2 -9 -21 -16 -52z"/>
<path d="M5972 1720 c0 -14 2 -19 5 -12 2 6 2 18 0 25 -3 6 -5 1 -5 -13z"/>
<path d="M5956 1664 c-4 -14 -5 -28 -3 -31 3 -2 8 8 11 23 4 14 5 28 3 31 -3
2 -8 -8 -11 -23z"/>
<path d="M5945 1608 c-10 -29 -25 -111 -21 -115 2 -3 10 22 16 54 7 32 14 61
17 66 2 4 2 7 -2 7 -3 0 -8 -6 -10 -12z"/>
<path d="M5908 1457 c-3 -19 -2 -25 4 -19 6 6 8 18 6 28 -3 14 -5 12 -10 -9z"/>
<path d="M5892 1378 c-6 -23 -9 -44 -7 -46 2 -2 9 15 15 38 6 23 9 44 7 46 -2
3 -9 -14 -15 -38z"/>
<path d="M5861 1249 c-6 -28 -10 -54 -7 -56 2 -2 9 19 15 48 6 28 10 54 7 56
-2 2 -9 -19 -15 -48z"/>
<path d="M761 1286 c6 -6 175 -46 190 -45 8 0 -29 12 -81 25 -95 24 -117 28
-109 20z"/>
<path d="M985 1231 c11 -5 40 -11 65 -15 30 -4 36 -3 20 3 -37 12 -109 22 -85
12z"/>
<path d="M1108 1203 c7 -3 16 -2 19 1 4 3 -2 6 -13 5 -11 0 -14 -3 -6 -6z"/>
<path d="M1160 1190 c14 -4 34 -8 45 -8 16 0 15 2 -5 8 -14 4 -34 8 -45 8 -16
0 -15 -2 5 -8z"/>
<path d="M1238 1173 c7 -3 16 -2 19 1 4 3 -2 6 -13 5 -11 0 -14 -3 -6 -6z"/>
<path d="M5843 1165 c-3 -9 -3 -18 -1 -21 3 -3 8 4 11 16 6 23 -1 27 -10 5z"/>
<path d="M1290 1160 c34 -11 60 -11 35 0 -11 5 -29 8 -40 8 -16 0 -15 -2 5 -8z"/>
<path d="M1358 1148 c5 -5 16 -8 23 -6 8 3 3 7 -10 11 -17 4 -21 3 -13 -5z"/>
<path d="M1420 1130 c34 -11 60 -11 35 0 -11 5 -29 8 -40 8 -16 0 -15 -2 5 -8z"/>
<path d="M5816 1054 c-10 -41 -16 -77 -14 -80 3 -2 12 30 22 72 10 41 16 77
14 80 -3 2 -12 -30 -22 -72z"/>
<path d="M1488 1113 c7 -3 16 -2 19 1 4 3 -2 6 -13 5 -11 0 -14 -3 -6 -6z"/>
<path d="M1550 1100 c14 -4 34 -8 45 -8 16 0 15 2 -5 8 -14 4 -34 8 -45 8 -16
0 -15 -2 5 -8z"/>
<path d="M1645 1080 c11 -5 27 -9 35 -9 9 0 8 4 -5 9 -11 5 -27 9 -35 9 -9 0
-8 -4 5 -9z"/>
<path d="M1720 1060 c14 -4 34 -8 45 -8 16 0 15 2 -5 8 -14 4 -34 8 -45 8 -16
0 -15 -2 5 -8z"/>
<path d="M1798 1043 c7 -3 16 -2 19 1 4 3 -2 6 -13 5 -11 0 -14 -3 -6 -6z"/>
<path d="M1830 1039 c0 -5 9 -9 20 -9 11 0 20 2 20 4 0 2 -9 6 -20 9 -11 3
-20 1 -20 -4z"/>
<path d="M1885 1026 c26 -12 87 -24 79 -16 -5 4 -27 11 -49 14 -22 3 -35 4
-30 2z"/>
<path d="M1990 1000 c8 -5 22 -9 30 -9 10 0 8 3 -5 9 -27 12 -43 12 -25 0z"/>
<path d="M2048 988 c6 -6 18 -8 28 -6 14 3 12 5 -9 10 -19 3 -25 2 -19 -4z"/>
<path d="M2108 973 c7 -3 16 -2 19 1 4 3 -2 6 -13 5 -11 0 -14 -3 -6 -6z"/>
<path d="M2141 966 c2 -2 18 -6 34 -10 22 -5 26 -4 15 4 -14 9 -59 15 -49 6z"/>
<path d="M5786 924 c-4 -20 -5 -38 -3 -40 3 -3 8 11 11 32 4 20 5 38 3 40 -3
3 -8 -11 -11 -32z"/>
<path d="M2238 943 c7 -3 16 -2 19 1 4 3 -2 6 -13 5 -11 0 -14 -3 -6 -6z"/>
<path d="M2278 933 c7 -3 16 -2 19 1 4 3 -2 6 -13 5 -11 0 -14 -3 -6 -6z"/>
<path d="M2330 920 c14 -4 34 -8 45 -8 16 0 15 2 -5 8 -14 4 -34 8 -45 8 -16
0 -15 -2 5 -8z"/>
<path d="M2408 903 c7 -3 16 -2 19 1 4 3 -2 6 -13 5 -11 0 -14 -3 -6 -6z"/>
<path d="M2470 890 c8 -5 22 -9 30 -9 10 0 8 3 -5 9 -27 12 -43 12 -25 0z"/>
<path d="M2528 873 c7 -3 16 -2 19 1 4 3 -2 6 -13 5 -11 0 -14 -3 -6 -6z"/>
<path d="M2568 868 c6 -6 18 -8 28 -6 14 3 12 5 -9 10 -19 3 -25 2 -19 -4z"/>
<path d="M5766 839 c-8 -42 0 -50 9 -9 4 17 5 34 2 36 -2 3 -7 -10 -11 -27z"/>
<path d="M2628 853 c7 -3 16 -2 19 1 4 3 -2 6 -13 5 -11 0 -14 -3 -6 -6z"/>
<path d="M2668 843 c7 -3 16 -2 19 1 4 3 -2 6 -13 5 -11 0 -14 -3 -6 -6z"/>
<path d="M2718 833 c7 -3 16 -2 19 1 4 3 -2 6 -13 5 -11 0 -14 -3 -6 -6z"/>
<path d="M2758 823 c7 -3 16 -2 19 1 4 3 -2 6 -13 5 -11 0 -14 -3 -6 -6z"/>
<path d="M2815 810 c3 -5 8 -10 11 -10 2 0 4 5 4 10 0 6 -5 10 -11 10 -5 0 -7
-4 -4 -10z"/>
<path d="M2855 801 c11 -4 38 -11 60 -14 25 -4 33 -4 20 2 -11 4 -38 11 -60
14 -25 4 -33 4 -20 -2z"/>
<path d="M3025 760 c27 -12 43 -12 25 0 -8 5 -22 9 -30 9 -10 0 -8 -3 5 -9z"/>
<path d="M5745 744 c-4 -16 -11 -45 -16 -64 -5 -19 -8 -42 -8 -50 1 -8 10 19
20 60 10 41 16 76 14 78 -2 3 -7 -9 -10 -24z"/>
<path d="M3098 743 c7 -3 16 -2 19 1 4 3 -2 6 -13 5 -11 0 -14 -3 -6 -6z"/>
<path d="M3148 733 c7 -3 16 -2 19 1 4 3 -2 6 -13 5 -11 0 -14 -3 -6 -6z"/>
<path d="M3188 723 c7 -3 16 -2 19 1 4 3 -2 6 -13 5 -11 0 -14 -3 -6 -6z"/>
<path d="M3228 713 c6 -2 18 -2 25 0 6 3 1 5 -13 5 -14 0 -19 -2 -12 -5z"/>
<path d="M3308 698 c5 -5 16 -8 23 -6 8 3 3 7 -10 11 -17 4 -21 3 -13 -5z"/>
<path d="M3358 683 c7 -3 16 -2 19 1 4 3 -2 6 -13 5 -11 0 -14 -3 -6 -6z"/>
<path d="M3465 660 c11 -5 27 -9 35 -9 9 0 8 4 -5 9 -11 5 -27 9 -35 9 -9 0
-8 -4 5 -9z"/>
<path d="M3578 633 c7 -3 16 -2 19 1 4 3 -2 6 -13 5 -11 0 -14 -3 -6 -6z"/>
<path d="M3618 623 c7 -3 16 -2 19 1 4 3 -2 6 -13 5 -11 0 -14 -3 -6 -6z"/>
<path d="M3658 613 c6 -2 18 -2 25 0 6 3 1 5 -13 5 -14 0 -19 -2 -12 -5z"/>
<path d="M3725 600 c3 -5 8 -10 11 -10 2 0 4 5 4 10 0 6 -5 10 -11 10 -5 0 -7
-4 -4 -10z"/>
<path d="M5706 579 c-8 -42 0 -50 9 -9 4 17 5 34 2 36 -2 3 -7 -10 -11 -27z"/>
<path d="M3750 596 c0 -2 9 -6 20 -9 11 -3 18 -1 14 4 -5 9 -34 13 -34 5z"/>
</g>
</svg>
