<svg width="21" height="21" viewBox="0 0 21 21" fill="none" xmlns="http://www.w3.org/2000/svg">
<path d="M20.49 1.01009H1.01V20.4901H20.49V1.01009Z" stroke="white" stroke-width="0.16" stroke-miterlimit="10"/>
<path d="M1.34 1.01009L20.49 1.34009L20.16 20.4901L1.01 20.1601L1.34 1.01009ZM1.34 1.01009L1.01 20.1601L20.16 20.4901L20.49 1.34009L1.34 1.01009Z" fill="white"/>
<path d="M1.33362 1.00986L1.00216 20.166L20.1583 20.4975L20.4898 1.34133L1.33362 1.00986Z" stroke="white" stroke-width="0.1455" stroke-miterlimit="10"/>
<path d="M1.68 1.01009L20.5 1.67009L19.84 20.4901L1.02 19.8301L1.68 1.01009ZM1.67 1.01009L1.01 19.8301L19.83 20.4901L20.49 1.67009L1.67 1.01009Z" fill="white"/>
<path d="M1.6693 1.00767L1.00425 19.8364L19.8329 20.5014L20.498 1.67272L1.6693 1.00767Z" stroke="white" stroke-width="0.1309" stroke-miterlimit="10"/>
<path d="M2.01 1.01009L20.49 2.01009L19.49 20.4901L1.01 19.4901L2.01 1.01009ZM2 1.01009L1 19.5001L19.49 20.5001L20.49 2.01009L2 1.01009Z" fill="white"/>
<path d="M2.00161 1.00809L1.00523 19.5022L19.4993 20.4985L20.4957 2.00447L2.00161 1.00809Z" stroke="white" stroke-width="0.1164" stroke-miterlimit="10"/>
<path d="M2.34 1.02009L20.49 2.35009L19.16 20.5001L1.02 19.1601L2.34 1.02009ZM2.34 1.01009L1.01 19.1701L19.17 20.5001L20.5 2.34009L2.34 1.01009Z" fill="white"/>
<path d="M2.33877 1.00971L1.00944 19.1705L19.1703 20.4999L20.4996 2.33904L2.33877 1.00971Z" stroke="white" stroke-width="0.1018" stroke-miterlimit="10"/>
<path d="M2.68 1.0201L20.49 2.6801L18.83 20.4901L1.02 18.8301L2.68 1.0201ZM2.67 1.0101L1.01 18.8401L18.84 20.5001L20.5 2.6701L2.67 1.0101Z" fill="white"/>
<path d="M2.66654 1.00486L1.00628 18.8378L18.8393 20.4981L20.4995 2.66511L2.66654 1.00486Z" stroke="white" stroke-width="0.0873" stroke-miterlimit="10"/>
<path d="M3.01 1.02009L20.49 3.01009L18.5 20.4901L1.02 18.5001L3.01 1.02009ZM3 1.01009L1.01 18.5101L18.51 20.5001L20.5 3.00009L3 1.01009Z" fill="white"/>
<path d="M3.0049 1.01001L1.01145 18.5073L18.5087 20.5008L20.5022 3.00346L3.0049 1.01001Z" stroke="white" stroke-width="0.0727" stroke-miterlimit="10"/>
<path d="M3.34 1.02009L20.48 3.34009L18.16 20.4801L1.02 18.1701L3.34 1.02009ZM3.33 1.01009L1.01 18.1801L18.18 20.5101L20.51 3.34009L3.33 1.01009Z" fill="white"/>
<path d="M3.33145 1.00409L1.00576 18.1781L18.1798 20.5038L20.5055 3.32977L3.33145 1.00409Z" stroke="white" stroke-width="0.0582" stroke-miterlimit="10"/>
<path d="M3.68 1.02009L20.49 3.67009L17.84 20.4801L1.02 17.8401L3.68 1.02009ZM3.67 1.01009L1.01 17.8501L17.85 20.5101L20.51 3.67009L3.67 1.01009Z" fill="white"/>
<path d="M3.66357 1.00658L1.00547 17.8486L17.8475 20.5067L20.5056 3.66468L3.66357 1.00658Z" stroke="white" stroke-width="0.0436" stroke-miterlimit="10"/>
<path d="M4.01 1.0301L20.49 4.0101L17.51 20.4901L1.03 17.5101L4.01 1.0301ZM4 1.0101L1.01 17.5201L17.52 20.5101L20.51 4.0001L4 1.0101Z" fill="white"/>
<path d="M3.99918 1.00311L1.00899 17.5146L17.5205 20.5048L20.5107 3.99331L3.99918 1.00311Z" stroke="white" stroke-width="0.0291" stroke-miterlimit="10"/>
<path d="M4.34 1.03009L20.48 4.34009L17.17 20.4801L1.03 17.1701L4.34 1.03009ZM4.33 1.01009L1.01 17.1901L17.19 20.5101L20.51 4.33009L4.33 1.01009Z" fill="white"/>
<path d="M4.32899 0.999993L1.00682 17.183L17.1898 20.5052L20.512 4.32217L4.32899 0.999993Z" stroke="white" stroke-width="0.0145" stroke-miterlimit="10"/>
<path d="M4.68 1.03009L20.49 4.68009L16.84 20.4901L1.03 16.8401L4.68 1.03009ZM4.66 1.01009L1.01 16.8601L16.86 20.5101L20.51 4.66009L4.66 1.01009Z" fill="white"/>
</svg>
